<?xml version="1.0" standalone="no"?>
<!DOCTYPE svg PUBLIC "-//W3C//DTD SVG 20010904//EN"
 "http://www.w3.org/TR/2001/REC-SVG-20010904/DTD/svg10.dtd">
<svg version="1.0" xmlns="http://www.w3.org/2000/svg"
 width="1024.000000pt" height="1024.000000pt" viewBox="0 0 1024.000000 1024.000000"
 preserveAspectRatio="xMidYMid meet">
<metadata>
Created by potrace 1.14, written by Peter Selinger 2001-2017
</metadata>
<g transform="translate(0.000000,1024.000000) scale(0.100000,-0.100000)"
fill="#000000" stroke="none">
<path d="M0 9550 c0 -379 3 -696 6 -704 3 -9 15 -13 29 -10 13 2 27 0 30 -6 6
-9 -11 -14 -43 -13 -8 1 -11 -5 -8 -14 16 -40 16 -60 2 -72 -13 -11 -15 -51
-16 -262 0 -154 4 -249 10 -249 9 0 38 15 113 60 l37 22 0 251 c0 146 -4 258
-10 267 -6 10 -10 11 -10 3 0 -7 -9 -13 -20 -13 -27 0 -26 26 1 33 28 8 49 -2
49 -22 1 -9 2 -134 3 -277 l2 -261 -65 -33 c-36 -18 -75 -38 -87 -44 l-23 -11
0 -1652 c0 -909 3 -1653 8 -1653 4 0 16 6 27 14 11 7 30 16 42 20 18 6 22 4
17 -8 -3 -9 -14 -16 -23 -16 -10 0 -25 -6 -34 -12 -15 -12 -8 -25 65 -128 45
-63 95 -135 112 -160 17 -25 36 -51 43 -58 17 -17 16 -22 -2 -22 -9 0 -20 11
-27 24 -10 24 -36 42 -45 32 -2 -2 9 -18 26 -35 18 -18 28 -37 25 -46 -4 -10
0 -15 11 -15 9 0 13 -4 10 -10 -10 -16 -23 -12 -30 10 -8 26 -17 25 -34 -1 -8
-15 -9 -24 -2 -28 6 -4 7 -12 1 -21 -8 -12 -10 -12 -16 3 -8 21 -24 22 -24 2
0 -8 5 -15 10 -15 6 0 10 -12 10 -26 0 -14 4 -33 9 -42 4 -9 11 -36 14 -60 4
-37 3 -41 -9 -31 -8 6 -18 8 -22 4 -4 -4 -1 -10 6 -12 6 -3 12 -9 12 -14 0 -4
-7 -6 -15 -3 -8 4 -22 1 -30 -6 -17 -14 -21 -50 -6 -50 6 0 9 -8 8 -19 -1 -16
-4 -17 -32 -6 -16 7 -41 16 -55 20 -35 10 35 -39 118 -82 55 -29 71 -32 115
-28 146 14 146 14 176 -11 35 -29 69 -30 116 -4 42 24 68 25 85 5 18 -22 3
-35 -39 -35 -44 0 -76 -28 -68 -59 4 -15 1 -18 -12 -14 -9 3 -22 11 -30 17
-11 9 -13 7 -7 -12 5 -13 3 -22 -3 -22 -6 0 -11 7 -11 15 0 8 -7 15 -15 15 -8
0 -15 -7 -15 -15 0 -8 -4 -15 -10 -15 -5 0 -10 -9 -10 -20 0 -11 -7 -20 -15
-20 -8 0 -12 -6 -9 -14 3 -8 12 -12 20 -9 8 3 12 9 9 13 -3 5 -1 11 4 14 5 4
13 1 17 -5 4 -6 -1 -16 -10 -21 -23 -13 -20 -55 5 -69 17 -9 20 -17 15 -47 -4
-23 -3 -32 2 -24 7 11 10 10 16 -3 8 -23 8 -27 -4 -20 -17 10 -11 -19 10 -45
19 -25 19 -25 35 -5 15 19 16 18 10 -17 -7 -43 10 -51 40 -21 14 14 18 14 27
2 8 -11 9 -11 4 3 -9 30 11 29 24 -1 7 -17 10 -62 8 -109 -2 -44 0 -78 5 -75
4 2 7 0 7 -5 0 -6 -7 -12 -15 -16 -8 -3 -15 -12 -15 -21 0 -8 -2 -15 -3 -15
-10 0 -67 32 -72 40 -3 5 -19 7 -35 5 -17 -2 -30 1 -30 6 0 5 -5 9 -11 9 -6 0
-9 -7 -5 -15 3 -9 0 -15 -9 -15 -8 0 -14 5 -13 12 2 7 -9 12 -27 13 -50 1 -91
25 -101 59 -7 26 -14 31 -37 29 -15 -1 -27 2 -27 8 0 5 4 9 10 9 20 0 23 50 5
70 -22 25 -37 25 -58 2 -26 -29 -22 -70 8 -78 14 -3 25 -10 25 -14 0 -5 -9 -6
-21 -3 -17 5 -20 2 -17 -13 4 -24 -57 -78 -146 -128 l-66 -37 0 -339 0 -338
35 -22 c19 -12 38 -27 42 -34 10 -16 84 -63 128 -82 30 -12 35 -11 91 23 32
20 125 71 206 114 146 77 147 78 242 85 72 5 101 11 117 25 19 16 35 18 108
15 90 -5 209 -29 241 -48 17 -11 17 -14 3 -35 -14 -21 -14 -23 1 -17 18 7 23
-20 6 -31 -20 -12 -9 -25 43 -50 59 -27 73 -30 82 -16 3 6 -3 9 -13 8 -23 -1
-82 23 -82 34 0 5 7 9 15 9 8 0 15 5 15 10 0 6 4 10 10 10 5 0 6 -8 3 -17 -5
-13 -2 -15 11 -10 10 4 15 3 11 -3 -3 -6 3 -10 14 -10 12 0 21 5 21 10 0 6 8
10 18 10 14 0 15 -2 2 -10 -27 -17 0 -24 29 -7 31 18 61 22 61 9 0 -5 -18 -19
-41 -31 -54 -30 -43 -38 16 -12 26 12 56 21 66 21 36 0 19 -26 -32 -49 -28
-12 -49 -24 -47 -27 6 -5 87 30 211 92 49 24 95 44 102 44 8 0 17 9 20 20 3
11 12 20 20 20 7 0 100 -45 206 -99 l194 -100 6 -263 c8 -306 11 -295 -100
-358 -34 -19 -77 -45 -94 -57 -18 -12 -67 -40 -109 -62 -42 -22 -79 -45 -83
-51 -10 -16 -48 -12 -101 11 -130 57 -301 143 -322 162 -18 16 -27 19 -40 11
-67 -42 -324 -174 -337 -174 -9 0 -67 23 -128 52 -131 61 -130 60 -225 117
l-73 44 -92 -48 c-180 -94 -202 -107 -225 -129 -42 -41 -52 -110 -52 -368 l0
-237 -100 -53 c-55 -29 -100 -59 -100 -66 0 -12 107 40 192 92 13 8 45 -4 150
-58 73 -38 163 -86 199 -107 65 -37 66 -39 66 -81 0 -24 3 -152 5 -286 4 -175
2 -242 -6 -242 -6 0 -3 -5 7 -11 9 -5 17 -16 17 -24 0 -7 9 -17 20 -20 11 -3
20 -13 20 -21 0 -21 -14 -17 -45 14 -16 15 -25 21 -21 14 6 -9 2 -11 -16 -7
-21 5 -109 -35 -336 -156 -38 -20 -42 -19 -167 45 -38 20 -73 36 -77 36 -5 0
-8 -52 -8 -115 l0 -115 475 0 475 0 0 48 c0 28 7 57 17 72 16 22 16 23 0 17
-11 -4 -17 -1 -17 8 0 7 -9 17 -21 20 -15 5 -18 10 -10 18 8 8 15 6 25 -9 12
-15 18 -17 33 -8 10 7 17 18 17 26 -1 12 3 13 22 4 29 -13 31 -26 5 -26 -11 0
-23 -4 -26 -10 -14 -22 26 -7 130 51 146 81 215 135 96 74 -45 -22 -50 -23
-56 -7 -3 9 -3 13 1 10 3 -4 16 2 27 13 12 11 28 17 38 14 23 -8 34 11 11 20
-16 7 -15 8 3 16 16 8 15 8 -7 4 -27 -5 -33 3 -30 36 1 3 -12 3 -29 1 -23 -3
-29 -1 -29 15 0 10 -5 24 -12 31 -8 8 -8 12 -1 12 6 0 13 -7 17 -15 3 -8 10
-15 16 -15 16 0 12 37 -5 44 -20 7 -19 43 0 54 10 5 13 15 9 25 -5 15 -9 15
-22 5 -13 -11 -14 -11 -7 2 7 13 6 13 -6 1 -10 -10 -11 -15 -2 -18 8 -3 7 -10
-5 -24 -20 -23 -36 -25 -28 -3 4 9 1 24 -6 33 -7 9 -8 13 -3 8 4 -4 17 0 26 9
18 16 18 18 1 48 -9 17 -24 37 -32 44 -8 8 -10 11 -3 8 6 -4 14 -2 18 4 9 15
28 12 22 -4 -6 -15 32 -56 52 -56 16 0 5 37 -18 64 -9 10 -15 27 -13 38 2 11
-11 34 -32 56 -20 20 -34 42 -31 49 2 7 0 13 -5 13 -5 0 -12 9 -15 20 -3 11
-13 20 -21 20 -8 0 -14 5 -14 10 0 6 -11 23 -25 38 -14 15 -28 37 -31 48 -4
15 -18 25 -44 32 -21 5 -42 7 -47 3 -4 -3 -5 -2 -1 3 14 17 9 36 -9 36 -15 0
-15 2 -4 9 17 11 43 -17 33 -34 -3 -5 3 -3 14 5 10 8 20 15 22 16 2 1 -2 12
-8 24 -11 20 -10 21 9 11 11 -6 26 -9 33 -6 7 3 28 -4 47 -16 27 -16 31 -23
20 -30 -9 -6 -3 -7 17 -3 19 4 34 1 38 -5 4 -6 17 -11 29 -10 20 1 19 2 -6 12
-15 6 -27 14 -27 19 0 4 -5 8 -10 8 -14 0 -70 42 -70 52 0 19 10 15 244 -96
65 -32 125 -55 132 -52 16 6 19 26 4 26 -6 0 -23 12 -38 26 -29 27 -28 27 38
-6 16 -8 20 -7 20 5 0 8 15 21 33 29 17 8 44 22 60 30 53 31 83 46 160 83 68
33 77 41 74 61 -2 12 0 25 4 28 5 3 9 -2 9 -10 0 -9 6 -16 13 -16 6 0 28 -35
47 -77 44 -96 72 -130 128 -154 76 -33 105 -25 182 45 76 70 161 130 168 119
12 -18 128 -38 137 -23 3 5 12 7 21 3 8 -3 33 7 56 22 29 19 63 30 115 37 66
9 76 8 108 -11 41 -24 37 -30 61 89 22 107 28 605 7 618 -9 6 -5 17 15 40 32
37 43 39 87 12 36 -22 105 -24 105 -2 0 6 5 12 10 12 21 0 9 43 -22 82 -65 79
-74 86 -108 90 -31 3 -36 8 -53 53 -14 36 -21 88 -25 184 l-5 134 59 -6 c32
-3 69 -9 82 -13 18 -5 22 -2 22 14 0 28 88 89 267 186 l142 77 148 -75 c81
-42 148 -74 150 -72 16 16 -277 174 -312 168 -11 -2 -24 -8 -30 -13 -12 -12
-25 -11 -25 1 0 6 7 10 16 10 9 0 14 6 11 13 -2 6 -11 11 -20 11 -8 -1 -13 4
-11 11 3 6 -2 18 -11 25 -13 11 -22 11 -50 -3 -30 -14 -33 -14 -28 -1 4 12 0
14 -23 7 -16 -4 -42 -6 -59 -5 -16 2 -42 4 -57 5 -14 1 -24 5 -21 10 2 4 0 7
-5 7 -6 0 -13 -7 -16 -16 -5 -14 -7 -14 -22 0 -8 9 -12 21 -8 27 4 7 3 9 -3 6
-5 -4 -16 6 -24 21 -8 15 -25 38 -38 52 -14 14 -18 17 -11 7 12 -16 12 -20 0
-27 -12 -7 -11 -15 8 -42 16 -22 10 -18 -17 12 -28 31 -39 51 -35 65 4 16 3
17 -5 5 -5 -8 -12 -12 -14 -10 -2 3 -69 86 -148 185 l-145 180 66 33 c36 18
120 63 187 100 l123 67 1 135 c1 74 5 185 9 245 l7 110 1 -82 c1 -46 4 -83 7
-83 3 0 17 12 30 26 37 40 33 78 -15 126 -59 61 -55 71 55 125 90 45 111 64
83 77 -7 3 -1 3 14 0 25 -5 102 31 205 96 20 13 28 10 90 -32 37 -25 124 -74
193 -109 69 -35 128 -68 132 -74 4 -6 73 23 174 73 125 62 169 80 179 72 9 -8
14 -8 17 1 4 11 22 5 155 -57 28 -13 55 -24 59 -24 4 0 12 -7 19 -16 11 -15
26 -10 146 52 74 37 135 68 135 68 1 1 5 62 8 136 4 74 8 136 10 137 1 2 8 -8
14 -23 7 -14 8 -23 2 -19 -14 9 -12 -42 3 -85 11 -31 18 -36 45 -31 4 1 0 7
-9 14 -17 13 -19 21 -19 121 0 78 -8 136 -20 136 -5 0 -11 -10 -13 -22 -4 -20
-4 -20 -6 4 0 14 5 29 12 32 10 5 10 7 0 12 -9 4 -13 28 -13 71 0 54 3 64 15
59 9 -3 15 0 15 10 0 11 -6 14 -16 10 -8 -3 -12 -2 -9 4 9 14 32 12 38 -2 4
-10 7 -10 17 -1 11 10 10 14 -3 19 -9 3 -17 12 -17 19 0 16 35 29 51 19 7 -4
9 -3 6 3 -4 6 11 19 33 29 22 10 40 23 40 27 0 4 -8 4 -17 -1 -10 -5 -40 -19
-68 -31 -27 -12 -58 -26 -68 -32 -21 -11 -36 -4 -21 10 5 5 85 47 179 94 169
86 169 86 190 67 12 -11 33 -20 48 -20 15 0 27 -4 27 -8 0 -9 112 -30 129 -24
6 2 11 11 11 19 0 15 47 63 63 63 4 0 7 8 7 19 0 10 7 24 15 31 13 11 18 10
31 -8 16 -23 48 -29 60 -11 3 6 16 8 28 6 27 -6 64 7 48 17 -6 3 -9 13 -6 21
4 10 19 -1 49 -36 53 -62 60 -67 183 -131 53 -28 102 -54 107 -59 6 -4 37 -22
69 -38 52 -28 65 -31 126 -27 66 4 145 22 166 37 12 10 68 12 146 5 80 -6 97
0 94 32 -2 16 -10 28 -20 30 -17 4 -23 22 -6 22 16 0 12 38 -5 47 -10 6 -13
19 -8 46 3 20 9 34 14 31 5 -3 9 0 9 5 0 6 -6 11 -12 11 -9 0 -9 3 1 9 12 8
10 19 -12 69 -15 33 -27 74 -27 92 0 27 3 32 20 27 12 -3 20 0 20 8 0 7 7 18
15 25 17 14 20 50 5 50 -5 0 -10 9 -10 20 0 27 13 25 25 -2 14 -31 29 -29 33
5 4 30 22 38 23 10 0 -15 3 -14 16 5 15 22 53 31 53 12 0 -5 7 -7 15 -4 8 4
12 10 9 15 -9 15 -12 79 -4 74 4 -3 10 4 13 15 3 11 1 20 -5 20 -5 0 -8 5 -6
11 2 6 7 10 12 9 5 -1 13 4 17 12 7 10 9 9 9 -4 0 -9 4 -19 9 -23 10 -5 7 41
-5 78 -5 17 -3 19 15 14 18 -4 21 -1 21 24 0 16 3 29 8 29 4 0 18 25 32 57 26
61 54 93 81 93 11 0 20 11 24 31 6 28 8 29 24 15 19 -17 32 -21 30 -8 -1 4 -1
16 0 27 1 15 3 17 10 7 6 -10 10 -7 15 12 4 15 11 24 15 21 5 -3 17 2 25 11 9
8 16 11 16 5 0 -19 52 -70 97 -95 24 -14 76 -34 116 -46 110 -33 547 -249 547
-272 0 -15 -37 -8 -60 12 -27 23 -42 26 -34 7 3 -8 20 -20 39 -27 19 -8 35
-17 35 -22 0 -7 -24 -12 -43 -9 -5 1 -6 -3 -2 -8 4 -7 15 -7 31 -1 33 13 34
13 28 -5 -4 -8 2 -27 11 -42 10 -15 20 -40 22 -56 4 -37 20 -57 43 -57 14 0
21 -13 29 -52 7 -28 17 -58 24 -67 9 -12 9 -13 0 -7 -7 4 -13 4 -13 -1 0 -11
20 -40 20 -29 0 17 30 -17 30 -34 0 -10 7 -20 15 -24 8 -3 12 -12 9 -21 -4 -9
-1 -15 7 -15 11 0 11 -3 -1 -10 -10 -6 -11 -10 -2 -10 6 0 12 -7 12 -15 0 -8
8 -15 18 -15 14 0 15 -2 2 -10 -10 -6 -16 -6 -18 0 -7 19 -20 10 -15 -10 3
-11 12 -20 21 -20 29 0 5 -15 -175 -110 -58 -30 -79 -50 -52 -50 6 0 82 36
170 80 87 44 181 89 210 100 l52 21 46 -25 c25 -13 115 -60 200 -105 84 -45
160 -81 167 -81 14 0 311 155 328 171 5 5 7 11 4 14 -2 3 -77 -32 -165 -77
l-160 -81 -55 22 c-30 12 -93 44 -139 72 -46 27 -96 55 -111 62 -16 6 -28 15
-28 19 0 11 14 10 27 -3 15 -15 115 -19 108 -5 -3 6 -8 19 -11 29 -4 9 -11 17
-18 17 -6 0 5 9 24 19 30 16 37 17 50 5 12 -12 12 -16 1 -26 -11 -11 -13 -10
-8 5 5 12 1 17 -14 17 -19 0 -19 -1 -3 -17 23 -24 44 -25 44 -3 0 10 7 20 15
24 8 3 15 1 15 -4 0 -6 -5 -10 -12 -10 -6 0 -3 -6 7 -14 21 -15 40 -12 30 5
-4 5 -1 9 6 9 7 0 10 3 6 6 -3 3 3 16 14 28 19 20 21 20 30 4 12 -22 45 -24
52 -3 4 8 0 27 -8 42 -21 40 -19 63 6 63 15 0 19 5 15 15 -8 21 0 19 23 -7 11
-11 18 -25 15 -30 -3 -4 2 -8 10 -8 8 0 21 -8 28 -18 7 -10 19 -22 26 -26 16
-10 -4 40 -29 69 -9 11 -27 40 -41 65 -13 25 -40 70 -59 100 -93 143 -138 220
-130 220 5 0 17 -8 27 -17 16 -16 16 -16 10 5 -6 17 -4 21 8 16 9 -3 16 -1 16
6 0 6 4 8 10 5 6 -3 7 1 4 9 -7 19 -16 20 -31 5 -7 -7 -15 -5 -27 7 -9 9 -14
19 -10 23 4 3 9 0 11 -6 3 -7 12 -13 20 -13 9 0 13 6 10 15 -4 8 -2 17 3 20 5
3 6 13 3 21 -3 9 -9 11 -12 6 -3 -5 -15 -1 -25 9 -19 19 -19 19 0 19 11 0 24
4 30 10 13 13 127 -31 287 -111 l128 -64 1 -278 1 -279 207 -103 207 -104 29
18 c16 9 109 59 207 109 l179 92 195 -99 195 -100 73 37 74 37 1 1653 0 1652
-100 -50 c-55 -28 -100 -49 -100 -47 0 4 134 84 178 106 21 11 22 16 22 170 0
132 -3 160 -15 165 -8 3 -15 10 -15 15 0 6 7 8 15 5 13 -5 15 7 15 80 0 72 -2
84 -15 80 -17 -7 -20 -24 -4 -24 8 0 7 -6 -2 -17 -12 -15 -12 -16 1 -8 13 7
13 6 2 -7 -11 -14 -11 -20 0 -37 10 -16 10 -26 2 -39 -14 -22 -44 -28 -44 -9
0 10 -7 13 -19 10 -10 -3 -28 0 -40 6 -17 10 -21 9 -21 -5 0 -10 5 -14 14 -11
11 4 13 1 9 -10 -4 -11 -15 -14 -39 -10 -50 8 -42 -14 14 -39 104 -47 101 -45
67 -40 -66 8 -190 53 -193 70 -2 9 -10 16 -18 16 -10 0 -12 -5 -8 -12 5 -9 2
-8 -10 1 -12 10 -14 16 -5 22 7 4 9 14 6 23 -5 12 0 16 18 16 13 0 27 5 30 10
4 6 -8 10 -29 10 -19 0 -36 -6 -39 -12 -4 -10 -7 -10 -18 0 -10 9 -10 12 0 12
9 0 8 5 -3 16 -9 8 -16 21 -16 27 0 8 -4 7 -12 -1 -15 -15 -32 -16 -23 -2 3 6
2 10 -4 10 -5 0 -12 -6 -15 -12 -3 -7 -4 -1 -1 14 3 15 1 29 -4 33 -5 3 -9 14
-8 25 1 10 5 16 9 14 5 -3 6 -10 3 -15 -4 -5 -1 -9 4 -9 6 0 11 6 11 13 1 7 6
5 14 -6 8 -11 17 -14 20 -8 4 5 -3 15 -14 21 -11 6 -20 7 -20 3 0 -4 -5 -2
-12 5 -7 7 -20 12 -29 12 -11 0 -16 7 -15 18 2 11 12 17 27 17 13 0 23 -5 22
-12 -3 -15 25 -25 33 -11 4 6 3 8 -3 5 -6 -4 -14 0 -17 9 -12 31 -5 37 18 15
13 -12 26 -18 29 -14 3 5 -3 16 -14 23 -10 8 -19 18 -19 23 0 13 34 4 47 -13
6 -9 15 -11 20 -6 4 5 2 11 -5 13 -6 3 -9 10 -5 15 4 7 -1 9 -15 6 -15 -4 -19
-2 -15 8 3 9 -2 14 -16 14 -13 0 -19 -5 -15 -13 5 -14 -9 -30 -38 -40 -12 -4
-15 -2 -11 10 4 11 1 14 -13 11 -10 -2 -19 -9 -19 -17 0 -20 -36 -40 -42 -23
-3 6 -10 12 -16 12 -8 0 -7 -4 1 -12 7 -7 12 -22 12 -35 0 -13 6 -23 13 -23 7
0 21 -10 31 -22 16 -19 17 -20 1 -15 -9 4 -19 7 -21 7 -3 0 -2 5 1 10 3 6 -1
10 -10 10 -10 0 -13 -5 -9 -12 4 -7 3 -8 -4 -4 -7 4 -12 1 -12 -10 0 -33 -29
6 -33 44 -4 36 -4 36 -5 -6 -1 -24 -6 -41 -10 -38 -5 3 -7 27 -5 55 3 27 0 58
-6 68 -5 11 -98 64 -206 119 l-196 99 -193 -99 -192 -100 -55 31 c-30 17 -116
63 -192 102 l-137 72 -176 -91 c-96 -50 -188 -99 -205 -109 l-30 -19 1 -273 1
-274 -28 -12 c-15 -7 -35 -17 -43 -22 -8 -5 -85 -49 -170 -97 l-154 -87 -127
67 c-70 36 -133 66 -140 65 -13 0 34 -27 114 -66 20 -10 37 -21 37 -25 0 -5 8
-8 18 -9 21 -1 108 -53 105 -62 -2 -4 -3 -126 -3 -271 l0 -264 -47 -28 c-27
-15 -64 -27 -86 -28 -26 -1 -36 -5 -32 -14 3 -10 -1 -12 -18 -7 l-22 6 23 -18
c12 -10 65 -40 117 -68 81 -42 112 -65 90 -65 -3 0 -108 51 -233 114 -178 90
-233 114 -254 109 -16 -3 -28 -9 -28 -14 0 -13 -28 -11 -32 3 -3 8 -9 8 -24 0
-19 -11 -19 -11 0 -12 14 0 17 -3 10 -10 -18 -18 -63 8 -56 33 3 13 1 18 -5
14 -7 -5 -9 0 -6 12 3 13 -2 23 -17 31 -15 8 -19 17 -15 31 4 13 1 21 -10 25
-9 4 -14 13 -11 21 3 7 -2 17 -12 21 -9 4 -17 16 -17 27 0 11 -5 19 -10 18 -6
-1 -11 26 -12 60 -1 34 -7 63 -13 65 -5 2 -8 7 -6 10 2 4 7 31 11 61 5 40 3
56 -7 62 -10 7 -10 9 0 9 6 0 12 5 12 11 0 5 -4 7 -10 4 -5 -3 -10 3 -10 14 0
10 6 22 13 24 7 3 4 6 -6 6 -10 1 -16 5 -13 10 3 5 14 7 24 5 12 -4 21 5 31
27 15 35 46 70 55 62 3 -3 17 -2 31 1 18 5 25 12 21 21 -8 21 8 18 29 -5 13
-15 14 -20 4 -20 -7 0 6 -17 29 -38 47 -43 78 -53 59 -19 -9 15 -9 21 1 24 6
3 12 10 12 15 0 6 -3 8 -6 5 -4 -4 -20 10 -36 30 -22 28 -26 39 -16 46 9 6 6
7 -9 4 -27 -6 -29 1 -5 19 19 15 43 19 40 7 -2 -7 37 -48 87 -91 8 -7 20 -10
25 -7 15 9 12 35 -4 35 -15 0 -32 37 -22 47 3 3 12 0 20 -6 12 -10 14 -9 12 6
-2 12 -10 17 -22 15 -11 -2 -23 -5 -28 -5 -5 -1 -11 4 -13 11 -3 6 2 12 11 12
9 0 16 5 16 11 0 11 -10 10 -55 -6 l-20 -7 20 13 c43 27 44 34 45 300 l0 255
-27 26 c-16 15 -91 61 -168 103 -77 42 -152 90 -166 107 l-27 29 -148 -75
c-82 -41 -170 -87 -196 -102 l-47 -27 -164 83 c-180 91 -164 89 -226 29 -34
-33 -61 -67 -61 -78 0 -4 -11 -20 -24 -36 -26 -30 -39 -29 -106 9 -30 17 -37
25 -28 34 9 9 5 12 -18 12 -16 0 -41 8 -54 18 -34 23 -89 42 -95 31 -3 -4 -18
-3 -33 3 -31 13 -57 33 -29 22 13 -4 16 -2 12 9 -8 19 -56 41 -64 29 -3 -5
-25 -13 -48 -17 -24 -4 -45 -11 -48 -15 -3 -5 -21 -14 -41 -20 -54 -18 -161
-84 -202 -125 -35 -34 -35 -36 -9 -26 32 13 53 6 90 -27 46 -43 31 -100 -37
-144 l-31 -20 32 4 c23 3 34 0 39 -11 12 -27 13 -41 3 -41 -5 0 -9 -16 -7 -35
2 -41 1 -42 -37 -45 -36 -3 -62 6 -92 33 -19 17 -27 18 -48 9 -13 -6 -27 -8
-29 -3 -3 4 -19 7 -35 6 -23 -1 -28 1 -21 10 8 9 4 14 -16 18 -18 3 -22 1 -15
-6 18 -18 12 -31 -29 -60 -26 -18 -38 -23 -34 -13 3 9 10 16 16 16 5 0 6 5 3
10 -5 8 -12 7 -23 -2 -11 -9 -10 -5 3 14 11 14 22 22 23 17 2 -5 8 -9 14 -9 7
0 6 5 -2 14 -6 8 -18 12 -26 9 -11 -4 -13 3 -8 38 5 36 2 49 -16 72 -45 57
-116 70 -163 29 -11 -9 -21 -12 -26 -6 -21 21 -161 199 -161 205 0 3 64 39
143 80 97 50 154 74 181 76 21 1 42 7 46 13 4 6 10 11 14 11 18 -3 19 1 3 13
-16 13 -18 29 -15 168 2 123 6 152 17 150 9 -2 11 3 7 13 -3 9 -6 20 -6 23 0
4 -4 1 -9 -6 -5 -9 -8 2 -7 29 1 23 6 44 12 46 7 2 9 -9 6 -28 -4 -24 -1 -30
9 -27 16 5 14 41 -3 75 -6 12 -16 19 -23 17 -7 -3 -16 -1 -20 5 -3 7 3 11 17
12 14 1 17 3 7 6 -8 2 -28 -1 -42 -6 -20 -8 -25 -15 -20 -28 4 -13 3 -15 -6
-7 -6 6 -9 17 -6 25 8 21 311 173 326 164 8 -5 10 -4 5 3 -5 8 1 12 14 12 12
0 18 4 15 10 -5 8 314 -151 361 -180 18 -11 19 -27 16 -257 -2 -163 1 -250 7
-256 8 -8 11 69 11 254 l0 264 -113 58 c-61 31 -151 78 -199 103 l-87 46 -180
-91 c-99 -50 -186 -91 -193 -91 -7 0 -102 47 -210 104 -109 56 -200 101 -203
98 -3 -3 2 -16 10 -29 16 -23 13 -27 -17 -24 -10 1 -57 -16 -106 -38 -49 -22
-105 -43 -125 -46 -39 -8 -51 -25 -18 -25 33 0 51 -11 51 -31 0 -11 9 -27 20
-36 11 -10 20 -27 20 -38 0 -12 5 -26 12 -33 8 -8 8 -12 1 -12 -17 0 -97 65
-131 107 -18 21 -30 31 -27 23 2 -8 14 -87 25 -175 19 -150 43 -272 57 -285 3
-3 3 12 -1 33 -5 24 -3 37 4 37 6 0 10 -6 9 -12 -2 -13 10 -49 36 -103 14 -31
11 -50 -5 -25 -8 12 -10 10 -10 -7 0 -13 3 -23 8 -23 11 0 34 -41 37 -67 2
-23 0 -24 -32 -18 -56 10 -32 -9 81 -63 100 -48 134 -72 102 -72 -8 0 -62 23
-121 52 l-106 51 -89 -46 c-95 -50 -120 -56 -140 -32 -7 8 -18 15 -24 15 -7 0
-35 11 -63 25 -28 13 -64 27 -80 31 -15 4 -40 15 -55 25 -14 11 -29 19 -32 19
-3 0 -22 11 -42 25 -21 14 -40 22 -43 17 -3 -4 -23 -16 -44 -26 -20 -9 -35
-21 -32 -26 3 -4 -4 -6 -15 -3 -11 3 -26 -2 -35 -11 -9 -9 -21 -14 -26 -11 -5
4 -9 -1 -9 -10 0 -9 -4 -14 -9 -10 -5 3 -12 1 -16 -5 -3 -5 -15 -10 -26 -10
-10 0 -19 -4 -19 -10 0 -15 33 -12 58 6 12 8 30 14 40 12 12 -3 6 -9 -20 -21
-21 -9 -38 -21 -38 -28 0 -7 -3 -9 -6 -6 -4 4 -20 -1 -35 -10 -32 -19 -54 -9
-26 12 16 11 16 13 1 19 -22 9 -24 8 -24 -10 0 -11 -6 -13 -19 -9 -11 3 -22 1
-25 -4 -4 -5 3 -12 14 -16 22 -7 26 -20 10 -30 -6 -4 -7 -11 -4 -17 4 -6 2 -8
-4 -4 -6 3 -9 15 -7 26 2 13 -2 20 -11 20 -8 0 -14 5 -14 10 0 6 -5 10 -12 10
-6 0 -61 25 -122 57 -61 31 -153 78 -204 104 -61 31 -100 45 -110 41 -73 -32
-251 -129 -324 -178 -21 -13 -38 -20 -38 -14 0 5 -5 10 -11 10 -6 0 -8 -7 -5
-16 4 -10 2 -13 -7 -7 -6 4 -18 8 -26 10 -8 1 -17 5 -20 10 -3 4 -37 23 -76
42 -38 19 -78 41 -87 49 -11 9 -28 12 -45 9 -15 -4 -22 -4 -15 -1 6 3 10 10 7
15 -4 5 1 6 9 3 9 -3 16 -2 16 2 0 14 -108 62 -117 53 -12 -12 -360 -182 -348
-170 15 15 302 161 317 161 10 0 13 50 11 247 -1 157 2 237 7 219 5 -16 10
-58 12 -92 1 -35 6 -64 9 -64 4 0 10 -7 13 -16 3 -9 2 -12 -5 -9 -6 4 -8 -2
-4 -18 4 -14 2 -28 -4 -31 -15 -10 -14 -37 1 -34 18 4 35 40 31 66 -3 20 -2
21 17 10 11 -7 20 -23 20 -35 0 -14 6 -23 15 -23 8 0 15 -5 15 -11 0 -6 9 -9
20 -6 26 7 26 -11 0 -33 -13 -11 -17 -21 -10 -25 5 -3 10 -2 10 3 0 5 12 14
26 21 25 11 26 10 20 -13 -3 -14 -1 -28 5 -32 9 -5 10 5 5 37 -13 73 -15 127
-6 104 5 -11 11 -32 14 -47 9 -42 26 -33 23 12 -1 22 -5 40 -9 40 -3 0 -12 17
-18 38 -7 20 -16 41 -21 47 -11 11 -12 38 -1 32 9 -7 9 55 -1 70 -4 7 -15 9
-24 6 -10 -4 -14 -2 -11 7 2 8 -4 22 -14 32 -22 22 -28 23 -28 2 0 -12 -6 -15
-22 -9 -13 4 -31 7 -40 8 -9 1 -14 5 -12 9 3 4 -1 8 -8 8 -7 0 -107 48 -223
106 l-210 106 -194 -101 c-107 -55 -200 -101 -205 -101 -6 0 -99 47 -206 103
l-195 102 -6 220 c-4 121 -7 221 -8 223 0 1 -215 2 -476 2 l-475 0 0 -690z
m2354 -55 c3 -8 1 -15 -4 -15 -6 0 -10 7 -10 15 0 8 2 15 4 15 2 0 6 -7 10
-15z m1954 -60 c-3 -3 -9 2 -12 12 -6 14 -5 15 5 6 7 -7 10 -15 7 -18z m-17
-138 c-13 -13 -15 1 -4 30 7 17 8 17 11 -1 2 -10 -1 -23 -7 -29z m-1961 1 c0
-16 -3 -19 -11 -11 -6 6 -8 16 -5 22 11 17 16 13 16 -11z m783 -314 c94 -47
189 -96 211 -109 l41 -23 3 -270 2 -270 60 -29 c33 -15 60 -31 60 -35 0 -5 7
-8 16 -8 10 0 14 6 11 14 -4 10 0 12 14 9 25 -7 35 -23 15 -23 -9 0 -16 -5
-16 -11 0 -7 11 -9 28 -5 15 3 21 3 14 0 -8 -4 2 -13 24 -25 20 -10 41 -16 45
-13 5 3 9 -2 9 -10 0 -9 5 -16 11 -16 16 0 83 -32 90 -43 4 -6 23 0 45 13 33
21 35 25 18 32 -14 6 -12 7 8 3 36 -7 61 4 53 24 -5 12 -3 13 6 4 9 -9 30 -3
93 29 45 22 82 44 84 48 8 20 91 -3 176 -48 160 -86 196 -107 196 -113 0 -4
-70 29 -156 72 -85 44 -161 79 -167 79 -7 0 -90 -40 -185 -88 l-174 -89 2
-267 c0 -147 3 -272 6 -279 5 -14 -48 -47 -246 -150 l-145 -76 -195 99 c-107
55 -202 99 -211 100 -9 0 -96 -43 -195 -95 -98 -52 -183 -95 -189 -95 -5 0
-97 44 -203 97 l-192 98 -199 -103 -200 -102 -183 94 c-194 101 -234 125 -207
126 8 0 24 -7 35 -15 25 -19 38 -19 31 0 -4 8 -2 17 4 21 6 3 9 17 7 29 -2 13
0 24 5 25 23 1 27 -2 27 -21 0 -24 37 -58 63 -59 9 0 17 5 17 12 0 6 -3 9 -6
5 -3 -3 -15 2 -26 12 -14 14 -17 26 -12 45 4 16 2 26 -5 26 -6 0 -11 9 -11 20
0 25 15 26 30 3 11 -17 11 -17 6 0 -4 12 0 17 16 17 17 0 19 -3 10 -12 -7 -7
-12 -17 -12 -22 0 -6 5 -4 11 4 8 11 9 8 5 -15 -5 -24 -4 -27 4 -12 6 9 15 15
21 12 5 -4 9 -1 9 5 0 6 -6 13 -13 16 -15 5 -20 41 -6 50 5 3 8 0 7 -8 -2 -7
3 -12 10 -10 6 1 12 -6 13 -15 0 -11 3 -13 6 -5 2 6 11 12 19 12 9 0 12 -5 9
-12 -4 -7 6 1 21 17 15 17 35 29 43 27 13 -2 13 0 -1 8 -10 6 -18 15 -18 20 0
15 -40 52 -40 38 0 -7 -8 -22 -16 -33 -15 -19 -15 -19 -10 10 3 17 8 39 11 50
4 14 -1 24 -16 33 -12 8 -24 10 -28 5 -3 -4 -13 -9 -21 -11 -11 -3 -11 1 3 16
9 10 17 22 17 25 0 16 -46 77 -57 77 -7 0 -13 8 -13 18 0 22 -37 55 -52 46 -7
-5 -8 -2 -3 6 10 16 -16 32 -32 19 -14 -12 -36 -2 -28 12 4 5 1 9 -4 9 -6 0
-11 5 -11 10 0 6 7 10 15 10 8 0 15 5 15 10 0 13 -6 13 -31 0 -10 -6 -19 -18
-19 -26 0 -8 5 -12 10 -9 5 3 10 2 10 -3 0 -6 -7 -12 -15 -16 -12 -4 -13 -11
-5 -31 6 -15 10 -38 9 -53 l0 -27 -11 25 c-16 40 -20 136 -6 148 7 5 100 56
205 112 l193 101 199 -102 199 -102 0 -166 c0 -91 0 -214 1 -272 l1 -106 196
-99 197 -98 86 44 c47 25 130 68 183 97 54 29 105 53 114 53 9 0 59 -21 111
-46 52 -25 97 -43 100 -40 3 3 -2 8 -11 12 -9 3 -16 10 -16 15 0 5 11 3 25 -3
14 -6 24 -18 23 -27 -2 -9 3 -16 10 -15 6 1 21 2 32 3 11 0 20 8 20 16 0 8 4
15 10 15 5 0 7 7 4 15 -5 12 -10 13 -20 5 -7 -7 -10 -18 -8 -25 4 -10 -7 -8
-38 7 -23 12 -51 21 -61 20 -10 0 -15 4 -11 10 4 7 2 8 -4 4 -6 -4 -17 2 -24
14 -7 11 -18 20 -25 20 -7 0 -13 5 -13 11 0 6 9 9 19 6 14 -3 18 -1 14 10 -3
8 0 19 8 24 17 11 30 11 27 2 -2 -12 13 -43 22 -43 12 0 11 108 -1 116 -18 11
-23 -5 -10 -32 6 -15 9 -29 6 -32 -3 -4 -8 4 -12 16 -7 27 -23 29 -30 3 -3
-12 -11 -17 -20 -14 -8 3 -12 12 -8 21 3 8 0 22 -7 30 -10 12 -6 11 15 -2 19
-13 27 -15 27 -6 0 7 7 18 16 24 13 10 12 15 -10 39 -14 16 -26 39 -26 53 0
14 -4 23 -10 19 -16 -10 -24 23 -10 40 9 10 9 15 1 15 -6 0 -11 -5 -11 -12 0
-16 -13 0 -28 34 -6 15 -8 27 -4 27 30 -5 46 21 22 36 -6 3 -7 -1 -4 -9 4 -11
0 -16 -10 -16 -9 0 -16 7 -16 15 0 23 4 30 16 29 6 -1 9 9 6 22 -2 13 1 30 7
38 9 11 6 12 -13 9 -14 -3 -27 -10 -29 -17 -2 -6 -2 -2 1 9 2 11 4 30 4 42 0
13 3 21 7 19 10 -6 37 12 29 19 -3 4 -23 -2 -44 -13 -23 -12 -33 -22 -25 -26
16 -10 14 -46 -3 -46 -8 0 -15 14 -18 34 -4 34 -3 35 77 73 44 22 121 61 170
88 50 26 102 55 117 62 26 13 35 11 170 -57 79 -39 163 -82 187 -95 42 -23 61
-25 61 -5 0 5 -87 52 -192 105 l-193 96 -47 -25 c-26 -14 -117 -62 -202 -105
l-154 -79 -178 90 c-99 50 -187 98 -196 106 -16 14 -18 41 -18 292 l0 278 33
24 c38 28 89 58 212 124 50 26 99 53 110 61 11 7 21 13 23 13 2 0 81 -39 175
-86z m-873 36 c8 -5 11 -10 5 -10 -5 0 -17 5 -25 10 -8 5 -10 10 -5 10 6 0 17
-5 25 -10z m1440 -40 c0 -5 -5 -10 -11 -10 -5 0 -7 5 -4 10 3 6 8 10 11 10 2
0 4 -4 4 -10z m-30 -19 c0 -5 -9 -11 -21 -14 -16 -4 -18 -3 -8 9 13 16 29 19
29 5z m203 -7 c11 -11 -3 -24 -18 -18 -8 4 -12 10 -9 15 6 11 18 12 27 3z m67
-34 c0 -5 -7 -10 -15 -10 -8 0 -15 5 -15 10 0 6 7 10 15 10 8 0 15 -4 15 -10z
m1500 -10 c-8 -5 -19 -10 -25 -10 -5 0 -3 5 5 10 8 5 20 10 25 10 6 0 3 -5 -5
-10z m-1420 -39 c19 -16 32 -32 29 -35 -8 -9 -39 4 -39 16 0 15 -24 35 -37 31
-6 -2 -14 1 -18 6 -13 22 31 9 65 -18z m-3924 -1 c1 0 5 -7 8 -16 5 -13 2 -15
-16 -10 -13 4 -30 8 -38 10 -8 2 -16 10 -18 19 -3 14 2 15 30 6 18 -5 34 -9
34 -9z m5264 6 c0 -3 -4 -8 -10 -11 -5 -3 -10 -1 -10 4 0 6 5 11 10 11 6 0 10
-2 10 -4z m-1825 -16 c3 -5 -1 -10 -10 -10 -9 0 -13 5 -10 10 3 6 8 10 10 10
2 0 7 -4 10 -10z m553 -172 l-2 -163 -6 155 c-3 85 -4 158 -2 163 10 23 12 -9
10 -155z m-3968 111 c0 -5 -7 -9 -15 -9 -15 0 -20 12 -9 23 8 8 24 -1 24 -14z
m25 -19 c3 -5 1 -10 -4 -10 -6 0 -11 5 -11 10 0 6 2 10 4 10 3 0 8 -4 11 -10z
m22 -12 c-3 -8 -6 -5 -6 6 -1 11 2 17 5 13 3 -3 4 -12 1 -19z m1615 -286 c2
-94 0 -172 -4 -172 -5 0 -7 105 -6 233 2 246 6 223 10 -61z m4851 236 c48 -56
-14 -142 -78 -108 -53 28 -57 97 -7 124 32 18 60 12 85 -16z m-1680 1 c60 -33
74 -97 31 -148 -21 -26 -33 -31 -69 -31 -36 0 -48 5 -69 31 -43 50 -34 102 24
142 29 20 53 21 83 6z m-4863 -20 c0 -5 -7 -9 -15 -9 -15 0 -20 12 -9 23 8 8
24 -1 24 -14z m3980 -9 c0 -5 -4 -10 -10 -10 -5 0 -10 5 -10 10 0 6 5 10 10
10 6 0 10 -4 10 -10z m5740 0 c0 -5 -2 -10 -4 -10 -3 0 -8 5 -11 10 -3 6 -1
10 4 10 6 0 11 -4 11 -10z m-90 -10 c0 -5 -4 -10 -9 -10 -6 0 -13 5 -16 10 -3
6 1 10 9 10 9 0 16 -4 16 -10z m-9610 -4 c0 -3 -4 -8 -10 -11 -5 -3 -10 -1
-10 4 0 6 5 11 10 11 6 0 10 -2 10 -4z m-42 -25 c3 -8 -1 -12 -9 -9 -7 2 -15
10 -17 17 -3 8 1 12 9 9 7 -2 15 -10 17 -17z m5343 2 c13 -16 12 -17 -3 -4
-10 7 -18 15 -18 17 0 8 8 3 21 -13z m850 -9 c11 -14 10 -19 -10 -35 -18 -15
-27 -17 -37 -8 -17 14 -18 31 -2 47 16 16 33 15 49 -4z m-2224 -16 c-3 -8 -6
-5 -6 6 -1 11 2 17 5 13 3 -3 4 -12 1 -19z m30 -43 c0 -8 -4 -15 -9 -15 -10 0
-11 14 -1 23 9 10 10 9 10 -8z m-630 -17 c-3 -8 -6 -5 -6 6 -1 11 2 17 5 13 3
-3 4 -12 1 -19z m-3357 -8 c0 -5 -5 -10 -11 -10 -5 0 -7 5 -4 10 3 6 8 10 11
10 2 0 4 -4 4 -10z m10134 -31 c-3 -5 1 -9 8 -9 8 0 6 -5 -5 -11 -18 -10 -41
-4 -33 10 3 4 -8 5 -25 3 -17 -3 -29 0 -29 7 0 6 9 11 20 11 11 0 20 7 20 15
0 14 3 13 25 -1 14 -9 22 -20 19 -25z m-5094 6 c0 -8 -4 -15 -10 -15 -5 0 -7
7 -4 15 4 8 8 15 10 15 2 0 4 -7 4 -15z m30 11 c0 -3 -4 -8 -10 -11 -5 -3 -10
-1 -10 4 0 6 5 11 10 11 6 0 10 -2 10 -4z m-1150 -16 c0 -5 -5 -10 -11 -10 -5
0 -7 5 -4 10 3 6 8 10 11 10 2 0 4 -4 4 -10z m100 -46 c0 -13 -4 -24 -10 -24
-5 0 -10 14 -10 31 0 17 4 28 10 24 6 -3 10 -17 10 -31z m-50 -6 c0 -5 -4 -8
-10 -8 -5 0 -10 10 -10 23 0 18 2 19 10 7 5 -8 10 -18 10 -22z m1334 23 c4 -5
-3 -7 -14 -4 -23 6 -26 13 -6 13 8 0 17 -4 20 -9z m-1294 -87 c0 -8 -4 -12
-10 -9 -5 3 -10 10 -10 16 0 5 5 9 10 9 6 0 10 -7 10 -16z m-653 -16 c-3 -8
-6 -5 -6 6 -1 11 2 17 5 13 3 -3 4 -12 1 -19z m662 -85 c0 -13 -3 -23 -7 -23
-5 0 -9 24 -9 53 -1 43 0 47 7 22 4 -16 8 -40 9 -52z m-655 -12 c-11 -12 -22
17 -16 44 l6 30 7 -35 c4 -19 5 -37 3 -39z m970 37 c14 -23 -3 -52 -32 -56
-32 -5 -49 34 -26 59 21 23 42 21 58 -3z m784 -18 c3 -8 7 -25 8 -37 2 -19 -2
-23 -23 -23 -15 0 -24 -3 -20 -6 11 -11 -21 -34 -37 -28 -12 5 -15 2 -10 -10
7 -17 40 -22 46 -6 2 5 21 16 43 26 37 15 38 15 25 -1 -8 -10 -39 -29 -70 -44
-73 -34 -77 -36 -62 -20 23 25 18 28 -85 46 -18 3 -33 9 -33 14 0 5 -7 9 -15
9 -8 0 -15 5 -15 11 0 5 4 8 9 4 5 -3 12 -1 15 4 4 5 -2 11 -11 13 -16 4 -16
5 2 15 11 6 40 14 64 18 35 6 42 5 36 -6 -5 -8 1 -6 12 4 14 12 23 15 28 8 3
-6 12 -11 18 -11 7 0 6 4 -3 10 -13 9 -13 10 0 11 8 1 20 1 27 0 7 -1 17 9 24
21 9 17 13 19 16 8 3 -8 7 -22 11 -30z m-1128 20 c0 -5 -7 -7 -15 -4 -8 4 -15
8 -15 10 0 2 7 4 15 4 8 0 15 -4 15 -10z m1018 3 c18 -4 20 -8 10 -14 -17 -12
-31 -11 -23 0 3 5 -5 12 -17 14 -13 2 -16 5 -8 6 8 0 26 -2 38 -6z m-1578 -57
c0 -3 -4 -8 -10 -11 -5 -3 -10 -1 -10 4 0 6 5 11 10 11 6 0 10 -2 10 -4z
m5580 -110 l195 -103 3 -240 2 -241 -36 -43 c-20 -24 -44 -60 -53 -79 -8 -19
-16 -37 -18 -39 -1 -2 -20 12 -42 30 -43 37 -76 52 -216 96 l-90 28 -140 186
c-77 103 -153 203 -168 222 -19 24 -27 45 -25 63 3 24 23 38 188 125 102 54
190 99 195 99 6 0 98 -47 205 -104z m-6510 80 c0 -3 -4 -8 -10 -11 -5 -3 -10
-1 -10 4 0 6 5 11 10 11 6 0 10 -2 10 -4z m1420 -6 c0 -5 -5 -10 -11 -10 -5 0
-7 5 -4 10 3 6 8 10 11 10 2 0 4 -4 4 -10z m-1450 -5 c0 -2 -13 -11 -30 -20
-16 -9 -30 -12 -30 -7 0 4 12 13 28 19 15 6 28 11 30 12 1 1 2 -1 2 -4z m1405
-15 c-3 -5 -11 -10 -16 -10 -6 0 -7 5 -4 10 3 6 11 10 16 10 6 0 7 -4 4 -10z
m1086 -34 c5 3 9 1 9 -4 0 -17 -13 -21 -33 -11 -16 9 -17 13 -6 20 8 5 15 4
17 -1 2 -6 8 -8 13 -4z m-2642 -30 c-10 -9 -69 -36 -69 -32 0 7 52 35 64 36 5
0 7 -2 5 -4z m1393 -32 c-7 -12 -11 -13 -17 -4 -4 7 -2 16 6 21 18 11 23 4 11
-17z m-1521 -34 c-13 -11 -31 -20 -39 -20 -9 0 -1 9 18 19 45 25 51 25 21 1z
m3419 12 c0 -9 2 -10 73 -18 26 -3 47 -10 47 -15 0 -6 6 -9 13 -8 22 4 65 -13
71 -27 3 -8 19 -14 36 -14 17 0 29 -4 25 -10 -3 -5 -13 -7 -23 -4 -14 5 -14 3
2 -10 11 -9 28 -14 38 -10 10 3 18 1 18 -5 0 -6 -4 -11 -8 -11 -4 0 -8 -11 -8
-25 0 -14 2 -25 6 -25 3 0 4 -24 3 -52 -1 -29 -3 -53 -4 -53 -2 0 -10 -54 -12
-85 -1 -15 4 -24 11 -22 7 1 12 -5 12 -13 0 -8 4 -15 10 -15 5 0 6 -9 1 -22
-5 -14 -4 -30 3 -40 5 -9 7 -21 3 -25 -5 -4 -12 -1 -17 7 -8 13 -10 13 -10 1
0 -20 -62 -73 -125 -106 -58 -30 -79 -47 -114 -91 l-22 -28 -122 63 c-172 89
-277 171 -292 226 -10 37 -13 205 -3 205 4 0 7 15 6 33 -3 57 2 131 9 124 3
-4 11 1 18 10 11 14 15 15 43 1 17 -9 34 -12 39 -8 4 5 28 10 53 11 25 1 52 8
60 14 8 7 29 15 45 19 45 10 48 11 70 24 24 13 45 15 45 4z m1239 -209 c1
-103 -3 -163 -9 -163 -6 0 -10 67 -9 183 0 111 4 174 9 162 5 -11 9 -93 9
-182z m18 120 c-3 -10 -5 -4 -5 12 0 17 2 24 5 18 2 -7 2 -21 0 -30z m-2369
-56 c49 -45 13 -137 -54 -137 -73 0 -113 90 -61 137 38 36 74 36 115 0z m2389
-34 c-3 -10 -5 -2 -5 17 0 19 2 27 5 18 2 -10 2 -26 0 -35z m-5468 11 c-16
-20 -28 -17 -22 5 3 12 11 17 19 14 11 -4 12 -9 3 -19z m51 -34 c0 -5 -7 -10
-16 -10 -8 0 -12 5 -9 10 3 6 10 10 16 10 5 0 9 -4 9 -10z m5397 -22 c-3 -8
-6 -5 -6 6 -1 11 2 17 5 13 3 -3 4 -12 1 -19z m-5516 -125 c-1 -54 -6 -102
-11 -107 -5 -5 -7 18 -5 55 2 35 4 86 4 113 1 27 4 47 7 43 4 -3 6 -50 5 -104z
m36 55 c-3 -8 -6 -5 -6 6 -1 11 2 17 5 13 3 -3 4 -12 1 -19z m180 -90 c-3 -8
-6 -5 -6 6 -1 11 2 17 5 13 3 -3 4 -12 1 -19z m59 -7 c-4 -5 -1 -11 4 -13 7
-2 5 -11 -4 -23 -14 -19 -15 -19 -21 -2 -9 21 0 47 15 47 6 0 9 -4 6 -9z m-61
-32 c11 -16 1 -19 -13 -3 -7 8 -8 14 -3 14 5 0 13 -5 16 -11z m8366 -55 c61
-31 84 -110 49 -171 -27 -48 -66 -73 -115 -73 -31 0 -45 8 -81 44 -39 38 -44
49 -44 87 0 35 7 53 31 82 45 55 94 65 160 31z m-8581 -16 c0 -16 -3 -19 -11
-11 -6 6 -8 16 -5 22 11 17 16 13 16 -11z m2594 -7 c24 -26 17 -60 -16 -84
l-28 -21 -27 21 c-16 11 -29 30 -31 42 -5 30 25 61 58 61 15 0 35 -9 44 -19z
m-2570 -6 c-4 -8 -8 -15 -10 -15 -2 0 -4 7 -4 15 0 8 4 15 10 15 5 0 7 -7 4
-15z m4 -51 c8 5 10 2 6 -8 -3 -9 -9 -16 -13 -16 -12 0 -31 24 -31 39 0 11 3
11 13 -4 8 -10 19 -15 25 -11z m1622 16 c0 -5 -7 -10 -16 -10 -8 0 -12 5 -9
10 3 6 10 10 16 10 5 0 9 -4 9 -10z m4050 -985 c36 -19 62 -34 58 -35 -9 0
-138 61 -138 66 0 9 18 2 80 -31z m-6814 -116 c120 -60 229 -119 241 -131 27
-25 32 -49 6 -26 -10 9 -122 69 -250 134 -127 64 -242 126 -255 136 l-23 18
31 -10 c17 -6 129 -60 250 -121z m59 -444 c44 -62 50 -85 22 -85 -17 0 -48 55
-42 72 3 8 -6 27 -20 44 -25 29 -34 50 -16 40 5 -4 30 -35 56 -71z m-39 -12
c-4 -4 -11 -1 -16 7 -16 25 -11 35 7 17 9 -9 13 -20 9 -24z m114 -119 c0 -8
-4 -14 -9 -14 -6 0 -9 9 -8 19 1 22 17 18 17 -5z m6304 -59 c3 -8 1 -15 -4
-15 -6 0 -10 7 -10 15 0 8 2 15 4 15 2 0 6 -7 10 -15z m2565 -89 c-14 -12
-202 -107 -193 -97 12 14 174 100 188 100 5 1 7 -1 5 -3z m-1349 -16 c0 -5 -5
-10 -11 -10 -6 0 -34 -15 -62 -33 -75 -49 -127 -77 -140 -77 -22 0 18 28 113
79 107 57 100 54 100 41z m460 -120 c0 -5 -4 -10 -10 -10 -5 0 -10 5 -10 10 0
6 5 10 10 10 6 0 10 -4 10 -10z m-684 -131 c3 -6 -1 -18 -10 -27 -9 -10 -16
-12 -16 -5 0 7 5 15 11 19 8 4 7 9 -2 15 -10 6 -10 9 -2 9 6 0 15 -5 19 -11z
m-1389 -231 c-3 -8 -6 -5 -6 6 -1 11 2 17 5 13 3 -3 4 -12 1 -19z m1613 -128
c0 -5 -2 -10 -4 -10 -3 0 -8 5 -11 10 -3 6 -1 10 4 10 6 0 11 -4 11 -10z m200
-20 c0 -5 -5 -10 -11 -10 -5 0 -7 5 -4 10 3 6 8 10 11 10 2 0 4 -4 4 -10z
m108 -2 c-6 -18 -28 -21 -28 -4 0 9 7 16 16 16 9 0 14 -5 12 -12z m-208 -8 c0
-5 -5 -10 -11 -10 -5 0 -7 5 -4 10 3 6 8 10 11 10 2 0 4 -4 4 -10z m40 1 c0
-12 -20 -25 -27 -18 -7 7 6 27 18 27 5 0 9 -4 9 -9z m125 -21 c9 -16 22 -30
30 -30 8 0 15 -7 15 -15 0 -14 -3 -13 -25 2 -13 10 -25 23 -25 29 0 7 -7 15
-16 18 -8 3 -12 10 -9 16 9 15 13 13 30 -20z m-245 10 c0 -5 -4 -10 -9 -10 -6
0 -13 5 -16 10 -3 6 1 10 9 10 9 0 16 -4 16 -10z m-1617 -27 c5 -28 0 -53 -12
-53 -3 0 -7 18 -8 40 -3 45 12 55 20 13z m1787 7 c8 -5 11 -12 7 -16 -4 -4
-15 0 -24 9 -18 18 -8 23 17 7z m145 -18 c-6 -7 -34 11 -29 19 3 5 11 3 19 -4
7 -6 12 -13 10 -15z m-315 2 c0 -2 -7 -4 -15 -4 -8 0 -15 4 -15 10 0 5 7 7 15
4 8 -4 15 -8 15 -10z m50 -4 c-28 -22 -40 -25 -40 -10 0 6 7 10 15 10 8 0 15
5 15 10 0 6 8 10 18 10 14 0 12 -4 -8 -20z m-7729 -28 c35 -21 81 -46 102 -56
20 -9 37 -19 37 -21 0 -13 -182 78 -200 101 -19 22 -8 17 61 -24z m7669 -2
c-19 -13 -30 -13 -30 0 0 6 10 10 23 10 18 0 19 -2 7 -10z m-4357 -111 c78
-39 144 -73 146 -75 2 -2 1 -11 -3 -20 -5 -14 -8 -14 -24 4 -9 11 -72 48 -139
82 -106 53 -149 80 -128 80 3 0 69 -32 148 -71z m-3463 47 c0 -2 -7 -7 -16
-10 -8 -3 -12 -2 -9 4 6 10 25 14 25 6z m2625 -24 c-3 -3 -11 0 -18 7 -9 10
-8 11 6 5 10 -3 15 -9 12 -12z m-2245 -38 c0 -2 -13 2 -30 11 -16 9 -30 18
-30 21 0 2 14 -2 30 -11 17 -9 30 -18 30 -21z m2375 -21 c19 -9 35 -20 35 -25
0 -6 -58 22 -79 39 -12 9 12 1 44 -14z m-2320 -3 c3 -6 -1 -7 -9 -4 -18 7 -21
14 -7 14 6 0 13 -4 16 -10z m-290 -360 c3 -5 -1 -10 -9 -10 -9 0 -16 5 -16 10
0 6 4 10 9 10 6 0 13 -4 16 -10z m-93 -357 c-10 -4 -10 -8 0 -21 12 -14 10
-14 -11 -3 -19 10 -21 15 -10 22 8 5 19 8 24 8 6 0 4 -3 -3 -6z m125 -19 c-3
-3 -12 -4 -19 -1 -8 3 -5 6 6 6 11 1 17 -2 13 -5z m215 -424 c-2 -16 -9 -30
-14 -30 -6 0 -8 10 -4 23 3 12 6 28 6 35 0 7 4 11 8 8 5 -3 7 -19 4 -36z m38
0 c0 -5 -2 -10 -4 -10 -3 0 -8 5 -11 10 -3 6 -1 10 4 10 6 0 11 -4 11 -10z
m90 -320 c0 -5 -5 -10 -11 -10 -5 0 -7 5 -4 10 3 6 8 10 11 10 2 0 4 -4 4 -10z
m2615 -590 c3 -5 -1 -10 -10 -10 -9 0 -13 5 -10 10 3 6 8 10 10 10 2 0 7 -4
10 -10z m-39 -105 c-11 -8 -22 -12 -25 -9 -6 6 19 24 34 24 6 -1 1 -7 -9 -15z
m-1956 1 c0 -2 -7 -7 -16 -10 -8 -3 -12 -2 -9 4 6 10 25 14 25 6z m-140 -941
c-7 -9 -15 -13 -17 -11 -7 7 7 26 19 26 6 0 6 -6 -2 -15z m600 -385 c0 -5 -4
-10 -9 -10 -6 0 -13 5 -16 10 -3 6 1 10 9 10 9 0 16 -4 16 -10z m-130 -41 c0
-26 -33 -22 -38 5 -3 11 0 16 7 12 6 -4 11 -2 11 4 0 6 5 8 10 5 6 -3 10 -15
10 -26z m125 11 c3 -5 -1 -10 -10 -10 -9 0 -13 5 -10 10 3 6 8 10 10 10 2 0 7
-4 10 -10z m10 -30 c-3 -5 -1 -10 6 -10 8 0 9 -4 0 -13 -7 -10 -7 -17 0 -24 8
-8 8 -13 0 -17 -12 -8 -13 -6 -17 42 -1 17 2 32 7 32 6 0 7 -4 4 -10z m-355
-16 c0 -8 -5 -12 -10 -9 -6 4 -8 11 -5 16 9 14 15 11 15 -7z m190 -22 c-6 -2
-7 -8 -4 -14 4 -5 1 -21 -6 -34 -10 -18 -16 -21 -27 -13 -18 15 -17 33 2 26
19 -8 31 11 16 26 -6 6 -11 17 -11 24 0 11 4 11 20 1 11 -7 16 -14 10 -16z
m70 7 c0 -6 -4 -7 -10 -4 -6 3 -10 -4 -10 -17 -1 -23 -1 -23 -16 -3 -13 18
-13 21 2 32 18 13 34 9 34 -8z m57 -31 c-3 -8 -6 -5 -6 6 -1 11 2 17 5 13 3
-3 4 -12 1 -19z m-268 -31 c9 -14 10 -22 2 -30 -8 -8 -11 -5 -11 11 0 14 -6
22 -18 22 -11 0 -18 7 -18 19 0 15 4 16 17 8 9 -5 22 -19 28 -30z m221 14 c0
-13 -43 -22 -55 -10 -7 7 -5 8 6 4 10 -4 20 -2 24 4 8 13 25 14 25 2z m-35
-41 c-3 -5 -10 -10 -16 -10 -5 0 -9 5 -9 10 0 6 7 10 16 10 8 0 12 -4 9 -10z
m-55 -10 c0 -5 -5 -10 -11 -10 -5 0 -7 5 -4 10 3 6 8 10 11 10 2 0 4 -4 4 -10z
m-94 -34 c20 -21 17 -28 -6 -14 -11 7 -20 16 -20 20 0 12 10 9 26 -6z m-131
-5 c3 -5 1 -12 -5 -16 -5 -3 -10 1 -10 9 0 18 6 21 15 7z m259 -3 c-3 -4 -9
-8 -15 -8 -5 0 -9 4 -9 8 0 5 7 9 15 9 8 0 12 -4 9 -9z m-193 -21 c-10 -9 -11
-8 -5 6 3 10 9 15 12 12 3 -3 0 -11 -7 -18z m113 -32 c-23 -17 -34 -19 -34 -5
0 6 4 10 9 10 4 0 6 12 3 28 l-5 27 23 -23 c21 -23 21 -24 4 -37z m-64 -30
c-14 -16 -40 -20 -40 -6 0 10 17 19 39 20 11 1 11 -2 1 -14z m-160 -25 c0 -5
-7 -7 -15 -4 -8 4 -15 8 -15 10 0 2 7 4 15 4 8 0 15 -4 15 -10z m105 -8 c-3
-3 -11 0 -18 7 -9 10 -8 11 6 5 10 -3 15 -9 12 -12z m-525 -47 c0 -2 -9 -3
-19 -2 -11 0 -18 5 -15 9 4 6 34 0 34 -7z m50 -41 c0 -16 -4 -22 -14 -18 -17
6 -28 32 -21 44 10 17 35 -2 35 -26z m237 -290 c-9 -9 -28 6 -21 18 4 6 10 6
17 -1 6 -6 8 -13 4 -17z m-507 -148 c0 -5 -7 -3 -15 4 -8 7 -12 17 -9 22 7 10
24 -9 24 -26z m27 5 c-3 -12 1 -22 9 -25 8 -3 14 -12 14 -21 0 -8 5 -15 10
-15 6 0 10 -5 10 -11 0 -6 18 -28 40 -49 22 -21 40 -42 40 -47 0 -6 9 -18 20
-28 11 -10 20 -22 20 -26 0 -14 47 -59 61 -59 9 0 10 -3 2 -11 -16 -16 -66 13
-120 71 -13 14 -33 35 -44 47 -12 12 -19 29 -16 38 4 8 3 14 -1 14 -26 -4 -44
3 -39 15 3 8 -3 22 -13 31 -21 19 -33 55 -18 55 6 0 8 9 5 20 -3 14 0 20 10
20 10 0 14 -6 10 -19z m449 -18 c-10 -10 -19 5 -10 18 6 11 8 11 12 0 2 -7 1
-15 -2 -18z m-299 -55 c-3 -8 -6 -5 -6 6 -1 11 2 17 5 13 3 -3 4 -12 1 -19z
m-192 -18 c3 -5 1 -10 -4 -10 -6 0 -11 5 -11 10 0 6 2 10 4 10 3 0 8 -4 11
-10z m211 -47 c-10 -10 -19 5 -10 18 6 11 8 11 12 0 2 -7 1 -15 -2 -18z m55 5
c1 -7 2 -22 3 -33 1 -11 6 -21 11 -21 6 -1 9 2 7 8 -1 5 2 7 7 4 5 -4 8 -18 5
-31 -2 -14 0 -25 6 -25 5 0 10 5 10 10 0 18 18 10 23 -10 3 -11 1 -18 -4 -15
-4 3 -6 -11 -3 -31 4 -32 2 -35 -11 -24 -12 10 -13 16 -3 28 11 13 10 14 -8 8
-38 -12 -73 50 -55 97 7 17 7 28 1 32 -6 4 -10 -3 -10 -14 0 -12 -7 -21 -15
-21 -8 0 -15 6 -15 13 0 29 48 52 51 25z m289 -38 c0 -5 -2 -10 -4 -10 -3 0
-8 5 -11 10 -3 6 -1 10 4 10 6 0 11 -4 11 -10z m-50 -70 c0 -5 -5 -10 -11 -10
-6 0 -26 -12 -44 -26 -36 -27 -68 -26 -79 3 -6 14 -4 14 18 0 21 -14 26 -14
36 -2 7 8 17 12 22 9 5 -3 12 3 15 15 5 21 43 30 43 11z m-1115 -70 c3 -5 2
-10 -4 -10 -5 0 -13 5 -16 10 -3 6 -2 10 4 10 5 0 13 -4 16 -10z m35 -20 c0
-5 -2 -10 -4 -10 -3 0 -8 5 -11 10 -3 6 -1 10 4 10 6 0 11 -4 11 -10z"/>
<path d="M1545 8120 c3 -5 8 -10 11 -10 2 0 4 5 4 10 0 6 -5 10 -11 10 -5 0
-7 -4 -4 -10z"/>
<path d="M3130 8090 c0 -5 5 -10 11 -10 5 0 7 5 4 10 -3 6 -8 10 -11 10 -2 0
-4 -4 -4 -10z"/>
<path d="M3048 8043 c6 -2 18 -2 25 0 6 3 1 5 -13 5 -14 0 -19 -2 -12 -5z"/>
<path d="M1610 8007 c0 -8 7 -17 15 -21 8 -3 15 -2 15 3 0 5 -7 14 -15 21 -12
10 -15 10 -15 -3z"/>
<path d="M1651 7955 c-1 -25 15 -52 26 -42 4 5 2 11 -4 15 -6 4 -13 16 -16 27
l-5 20 -1 -20z"/>
<path d="M3070 7850 c0 -5 5 -10 11 -10 5 0 7 5 4 10 -3 6 -8 10 -11 10 -2 0
-4 -4 -4 -10z"/>
<path d="M3125 7740 c3 -5 8 -10 11 -10 2 0 4 5 4 10 0 6 -5 10 -11 10 -5 0
-7 -4 -4 -10z"/>
<path d="M1745 7664 c-14 -11 -16 -18 -7 -21 6 -3 9 -9 6 -14 -3 -6 -11 -3
-19 7 -12 17 -13 16 -23 -3 -10 -17 -8 -20 13 -19 13 1 28 5 32 10 8 7 9 11
12 39 1 8 4 7 11 -3 8 -13 10 -12 10 3 0 21 -9 21 -35 1z"/>
<path d="M3712 7610 c0 -14 2 -19 5 -12 2 6 2 18 0 25 -3 6 -5 1 -5 -13z"/>
<path d="M1474 7515 c1 -29 2 -29 20 -13 11 10 11 15 0 25 -18 19 -22 16 -20
-12z"/>
<path d="M3664 7510 c-28 -15 -58 -30 -65 -32 -8 -3 -11 -9 -7 -13 6 -7 138
60 138 70 0 9 -15 3 -66 -25z"/>
<path d="M3110 7520 c0 -5 5 -10 11 -10 5 0 7 5 4 10 -3 6 -8 10 -11 10 -2 0
-4 -4 -4 -10z"/>
<path d="M3166 7506 c3 -8 12 -12 20 -9 17 6 9 23 -11 23 -8 0 -12 -6 -9 -14z"/>
<path d="M1512 7494 c-10 -11 -8 -15 7 -24 25 -13 28 -13 34 4 4 10 -1 12 -16
9 -16 -3 -18 -2 -8 5 7 5 9 12 5 15 -5 3 -15 -1 -22 -9z"/>
<path d="M1618 7497 c12 -7 19 -16 16 -20 -4 -4 -3 -7 3 -7 6 0 13 8 15 18 4
14 -1 18 -26 20 -30 2 -30 1 -8 -11z"/>
<path d="M1576 7491 c-6 -9 7 -22 34 -35 8 -4 5 1 -7 12 -12 11 -19 22 -16 26
4 3 4 6 0 6 -3 0 -8 -4 -11 -9z"/>
<path d="M1723 7455 c-3 -9 -3 -19 1 -22 3 -4 6 -1 6 6 0 7 4 9 10 6 6 -3 7 1
4 9 -8 20 -13 20 -21 1z"/>
<path d="M1565 7450 c3 -5 8 -10 11 -10 2 0 4 5 4 10 0 6 -5 10 -11 10 -5 0
-7 -4 -4 -10z"/>
<path d="M3534 7443 c-10 -7 -25 -13 -35 -13 -9 0 -22 -7 -30 -16 -7 -8 -21
-13 -31 -11 -11 3 -16 1 -11 -6 4 -7 0 -8 -12 -4 -11 5 -31 0 -51 -12 -35 -21
-47 -18 -17 5 10 7 14 16 9 21 -5 4 -11 2 -13 -5 -3 -6 -9 -10 -14 -6 -5 3 -9
0 -9 -5 0 -6 -7 -11 -15 -11 -17 0 -20 16 -5 23 6 3 5 4 -2 3 -7 -2 -19 4 -26
13 -9 11 -15 12 -18 5 -3 -7 -14 -10 -24 -7 -38 10 -19 -5 55 -42 l75 -38 105
53 c59 30 108 57 110 60 7 12 -22 7 -41 -7z"/>
<path d="M1645 7440 c4 -6 11 -8 16 -5 14 9 11 15 -7 15 -8 0 -12 -5 -9 -10z"/>
<path d="M1650 7410 c0 -5 7 -10 15 -10 8 0 15 5 15 10 0 6 -7 10 -15 10 -8 0
-15 -4 -15 -10z"/>
<path d="M1726 7412 c-3 -6 -1 -14 5 -17 15 -10 25 3 12 16 -7 7 -13 7 -17 1z"/>
<path d="M1740 7361 c24 -20 40 -26 40 -16 0 2 -15 12 -32 20 l-33 16 25 -20z"/>
<path d="M5155 8290 c-16 -17 -16 -20 -3 -15 9 4 19 13 22 21 7 19 2 18 -19
-6z"/>
<path d="M4976 8275 c4 -8 7 -15 9 -15 2 0 5 7 9 15 3 9 0 15 -9 15 -9 0 -12
-6 -9 -15z"/>
<path d="M5837 8049 c7 -7 15 -10 18 -7 3 3 -2 9 -12 12 -14 6 -15 5 -6 -5z"/>
<path d="M357 5980 c9 -11 19 -17 21 -15 6 6 -18 35 -29 35 -5 0 -1 -9 8 -20z"/>
<path d="M920 256 c0 -9 5 -16 10 -16 6 0 10 4 10 9 0 6 -4 13 -10 16 -5 3
-10 -1 -10 -9z"/>
<path d="M6120 10000 c0 -273 -10 -244 98 -281 74 -24 89 -24 156 6 l56 25
-22 42 c-12 24 -30 52 -40 62 -10 11 -18 23 -18 27 0 4 -6 14 -12 21 -7 7 -26
33 -43 58 -16 25 -32 47 -35 50 -3 3 -12 18 -20 33 -13 26 -13 30 1 37 18 10
17 63 -1 85 -12 15 -5 55 11 55 5 0 9 5 9 10 0 14 -27 12 -34 -2 -5 -10 -7
-10 -12 0 -3 7 -24 12 -50 12 l-44 0 0 -240z m90 95 c0 -5 -5 -3 -10 5 -5 8
-10 20 -10 25 0 6 5 3 10 -5 5 -8 10 -19 10 -25z"/>
<path d="M7277 10090 c-4 -85 -6 -168 -3 -185 2 -16 4 -43 5 -60 1 -26 3 -27
12 -12 7 11 7 83 2 215 l-9 197 -7 -155z"/>
<path d="M9641 10024 l1 -217 -101 -54 c-56 -30 -101 -59 -101 -64 0 -15 16
-11 64 16 42 24 81 36 43 14 -9 -6 -15 -14 -12 -20 4 -5 2 -9 -4 -9 -5 0 -22
-5 -36 -10 l-26 -10 23 -31 c32 -43 54 -77 79 -123 17 -33 19 -45 11 -78 -9
-35 -8 -38 6 -26 13 11 14 10 8 -15 -6 -23 -2 -33 24 -55 16 -14 30 -32 30
-39 0 -7 5 -13 12 -13 21 0 57 -41 51 -58 -4 -10 -2 -13 5 -8 8 5 12 -5 12
-33 0 -22 5 -43 12 -47 7 -4 8 -3 4 4 -4 7 -5 12 -2 12 3 0 12 -13 21 -30 9
-16 20 -30 25 -30 5 0 35 -16 66 -36 65 -42 68 -38 -66 -102 -62 -29 -93 -39
-113 -35 -19 4 -26 10 -23 20 4 8 1 11 -5 8 -6 -4 -8 -13 -5 -21 3 -8 -1 -14
-9 -14 -8 0 -15 5 -15 10 0 6 -11 10 -25 10 -14 0 -25 4 -25 10 0 5 7 7 15 4
8 -4 15 -2 15 4 0 5 -9 12 -20 15 -11 3 -18 1 -15 -3 3 -5 1 -11 -4 -14 -5 -3
-11 1 -15 9 -3 8 -13 15 -23 15 -28 0 2 -23 85 -66 l74 -37 154 78 153 79 18
-21 c24 -27 131 -85 144 -78 5 4 9 0 9 -8 0 -17 39 -61 63 -70 33 -12 17 19
-20 41 l-38 23 38 -6 37 -5 0 665 0 665 -301 0 -300 0 2 -216z m79 -708 c0 -3
-4 -8 -10 -11 -5 -3 -10 -1 -10 4 0 6 5 11 10 11 6 0 10 -2 10 -4z m-40 -400
c0 -3 -4 -8 -10 -11 -5 -3 -10 -1 -10 4 0 6 5 11 10 11 6 0 10 -2 10 -4z"/>
<path d="M6250 10060 c0 -11 4 -20 9 -20 6 0 9 9 8 20 -1 11 -5 20 -9 20 -4 0
-8 -9 -8 -20z"/>
<path d="M6519 9876 c-34 -16 -51 -54 -37 -80 27 -51 76 -60 107 -20 25 31 26
52 6 81 -19 26 -47 34 -76 19z m69 -55 c8 -50 -55 -70 -83 -27 -18 27 -11 54
19 66 27 10 60 -10 64 -39z"/>
<path d="M7330 9787 c19 -13 89 -52 155 -87 160 -84 183 -98 188 -118 3 -11 5
-8 6 8 1 23 -17 34 -182 120 -204 106 -217 112 -167 77z"/>
<path d="M3525 9680 c172 -90 230 -115 142 -59 -86 53 -274 149 -293 149 -10
0 58 -41 151 -90z"/>
<path d="M5358 9714 c12 -8 28 -13 35 -11 7 3 5 6 -5 6 -10 1 -18 6 -18 11 0
6 -8 10 -17 10 -14 0 -13 -3 5 -16z"/>
<path d="M5155 9670 c-3 -6 1 -7 9 -4 18 7 21 14 7 14 -6 0 -13 -4 -16 -10z"/>
<path d="M9440 9631 c0 -5 5 -13 10 -16 6 -3 10 -2 10 4 0 5 -4 13 -10 16 -5
3 -10 2 -10 -4z"/>
<path d="M2338 9613 c-10 -3 -18 -11 -18 -20 0 -12 3 -13 15 -3 8 6 19 9 25 5
5 -3 10 -2 10 4 0 13 -12 18 -32 14z"/>
<path d="M2905 9610 c3 -5 11 -10 16 -10 6 0 7 5 4 10 -3 6 -11 10 -16 10 -6
0 -7 -4 -4 -10z"/>
<path d="M9229 9608 c0 -7 -2 -44 -3 -83 -4 -93 -16 -169 -29 -176 -5 -4 -6
-12 -2 -18 5 -9 10 -9 20 -1 10 8 15 8 21 -1 5 -9 10 -7 15 7 7 18 8 18 8 1 1
-11 -8 -21 -18 -24 -17 -4 -18 -9 -9 -29 8 -17 8 -27 -1 -37 -9 -11 -8 -17 2
-26 17 -13 28 -5 20 16 -5 13 -1 12 27 -2 43 -22 115 -15 161 17 59 40 79 62
79 84 0 11 3 24 7 28 4 3 8 14 9 22 2 13 0 13 -17 -2 -18 -16 -20 -16 -38 0
-19 17 -20 17 -31 -3 -9 -18 -14 -19 -31 -10 -14 7 -19 17 -16 30 3 10 2 18
-2 17 -26 -3 -42 4 -38 16 4 11 -1 13 -22 10 -22 -4 -30 0 -34 16 -3 12 -13
20 -26 20 -22 0 -23 2 -25 87 -1 35 -5 53 -13 53 -7 0 -13 -6 -14 -12z m26
-227 c3 -5 1 -12 -5 -16 -5 -3 -10 1 -10 9 0 18 6 21 15 7z m218 -35 c4 -10 1
-13 -9 -9 -15 6 -19 23 -5 23 5 0 11 -7 14 -14z"/>
<path d="M2956 9594 c-5 -14 -4 -15 9 -4 17 14 19 20 6 20 -5 0 -12 -7 -15
-16z"/>
<path d="M6539 9567 c-54 -36 -52 -93 4 -127 41 -26 49 -25 86 6 41 34 42 75
2 115 -35 35 -48 36 -92 6z m81 -17 c11 -11 20 -31 20 -45 0 -27 -31 -65 -54
-65 -24 0 -66 41 -66 65 0 24 42 65 66 65 8 0 23 -9 34 -20z"/>
<path d="M2987 9530 c30 -32 38 -38 27 -17 -13 22 -37 47 -46 47 -6 0 3 -13
19 -30z"/>
<path d="M7671 9544 c0 -11 3 -14 6 -6 3 7 2 16 -1 19 -3 4 -6 -2 -5 -13z"/>
<path d="M9530 9521 c0 -6 9 -21 20 -33 11 -12 20 -16 20 -9 0 6 -9 21 -20 33
-11 12 -20 16 -20 9z"/>
<path d="M5536 9484 c-26 -25 -16 -49 19 -49 27 0 30 3 30 30 0 35 -24 45 -49
19z"/>
<path d="M2992 9459 c-28 -34 -41 -36 -70 -9 -12 12 -22 17 -22 12 0 -15 36
-42 56 -42 25 0 38 10 53 38 18 34 10 34 -17 1z"/>
<path d="M7671 9424 c0 -11 3 -14 6 -6 3 7 2 16 -1 19 -3 4 -6 -2 -5 -13z"/>
<path d="M2375 9408 c11 -34 31 -53 40 -37 5 7 4 10 -2 6 -6 -4 -13 6 -17 23
-3 17 -10 30 -16 30 -7 0 -9 -9 -5 -22z"/>
<path d="M5051 9414 c0 -11 3 -14 6 -6 3 7 2 16 -1 19 -3 4 -6 -2 -5 -13z"/>
<path d="M5028 9400 c-11 -43 -10 -240 1 -240 6 0 8 13 4 32 -4 21 -3 29 4 25
16 -10 20 68 8 143 -8 50 -12 59 -17 40z"/>
<path d="M9160 9386 c0 -8 4 -17 9 -20 5 -4 7 3 4 14 -6 23 -13 26 -13 6z"/>
<path d="M9110 9381 c0 -5 5 -13 10 -16 6 -3 10 -2 10 4 0 5 -4 13 -10 16 -5
3 -10 2 -10 -4z"/>
<path d="M7674 9215 c0 -77 2 -107 3 -67 2 40 2 103 0 140 -2 37 -3 4 -3 -73z"/>
<path d="M6825 9275 c-14 -13 -25 -35 -25 -49 0 -28 35 -66 61 -66 28 0 69 39
69 66 0 28 -41 74 -65 74 -9 0 -27 -11 -40 -25z m69 -14 c25 -27 17 -64 -16
-75 -49 -17 -80 41 -42 78 21 21 37 20 58 -3z"/>
<path d="M2241 9273 c-11 -12 -11 -17 -1 -26 10 -9 11 -9 6 0 -3 6 -1 13 5 15
7 2 10 9 8 15 -3 7 -9 6 -18 -4z"/>
<path d="M9195 9270 c3 -5 8 -10 11 -10 2 0 4 5 4 10 0 6 -5 10 -11 10 -5 0
-7 -4 -4 -10z"/>
<path d="M4291 9153 c0 -10 4 -27 9 -38 7 -17 9 -15 9 12 1 17 -3 35 -9 38 -5
3 -10 -2 -9 -12z"/>
<path d="M5020 9140 c0 -5 4 -10 9 -10 6 0 13 5 16 10 3 6 -1 10 -9 10 -9 0
-16 -4 -16 -10z"/>
<path d="M9745 9110 c3 -5 8 -10 11 -10 2 0 4 5 4 10 0 6 -5 10 -11 10 -5 0
-7 -4 -4 -10z"/>
<path d="M9535 9080 c10 -11 20 -20 22 -20 2 0 -2 9 -9 20 -7 11 -17 20 -22
20 -5 0 -1 -9 9 -20z"/>
<path d="M7635 9031 c-27 -15 -116 -61 -197 -104 -81 -42 -144 -79 -139 -81
18 -11 71 -16 71 -6 0 5 7 10 16 10 10 0 13 -6 9 -19 -3 -12 0 -21 10 -25 9
-3 13 -2 10 4 -3 6 3 10 14 10 12 0 21 -5 21 -11 0 -6 9 -22 20 -36 11 -14 20
-31 20 -37 0 -6 -4 -4 -10 4 -5 8 -13 11 -17 6 -4 -5 -2 -11 5 -13 6 -3 12
-10 12 -16 0 -13 41 -64 92 -114 23 -23 35 -28 40 -20 5 7 0 14 -11 17 -21 6
-71 62 -71 80 0 6 4 9 9 5 5 -3 13 0 17 6 4 7 3 9 -3 6 -6 -4 -14 1 -17 10 -5
12 -9 14 -18 5 -16 -16 -28 -15 -28 2 0 19 47 27 54 9 3 -7 9 -12 13 -11 4 2
9 -1 11 -7 2 -5 12 -19 22 -30 10 -11 23 -32 29 -47 6 -16 15 -28 21 -28 6 0
8 4 5 10 -3 6 1 7 9 4 9 -3 14 -10 13 -16 -3 -12 19 -25 58 -34 17 -3 24 -9
18 -11 -18 -7 -16 -23 3 -23 10 0 13 -6 10 -18 -4 -10 1 -27 10 -38 8 -10 13
-13 9 -6 -3 6 -1 12 5 12 7 0 8 6 1 18 -7 13 -7 22 0 29 7 7 5 16 -6 27 -9 8
-17 24 -18 35 -1 12 -6 17 -16 13 -8 -3 -12 -1 -9 4 3 5 8 17 11 27 6 16 12
12 40 -25 30 -40 48 -96 26 -83 -5 4 -9 1 -9 -4 0 -14 3 -14 35 1 31 14 31 19
0 42 -14 10 -25 27 -25 38 0 10 -7 21 -15 24 -8 4 -15 12 -15 20 0 8 -3 14 -7
14 -10 0 -86 116 -89 134 -4 27 16 41 54 37 7 0 10 -5 7 -11 -3 -5 0 -10 7 -9
19 1 55 17 40 18 -7 1 -10 6 -6 12 8 13 20 1 27 -26 4 -16 5 -15 6 5 1 22 6
26 37 28 48 4 66 20 44 41 -22 21 -57 41 -72 41 -6 0 -3 -7 8 -16 19 -15 18
-15 -3 -11 -14 3 -21 0 -20 -7 1 -6 -11 -12 -27 -14 -18 -2 -26 0 -21 7 4 7
-6 14 -24 17 -17 4 -31 10 -31 15 0 11 24 12 34 2 13 -13 51 -10 63 6 10 13 8
17 -9 21 -12 3 -24 12 -26 19 -4 11 131 -52 148 -69 3 -3 29 -16 57 -30 29
-14 53 -28 53 -32 0 -10 30 2 30 12 0 5 -53 36 -117 71 -65 34 -149 79 -188
99 l-70 38 -50 -27z m31 -26 c-11 -8 -26 -15 -33 -15 -7 0 -13 -6 -13 -12 -1
-7 -20 -23 -43 -34 -23 -12 -41 -27 -39 -33 1 -7 -2 -9 -8 -6 -15 9 -62 -3
-56 -14 3 -5 -3 -11 -14 -14 -11 -3 -20 -13 -20 -22 0 -10 -6 -15 -17 -13 -30
6 -24 25 14 45 67 36 117 65 158 93 34 23 57 34 85 39 3 0 -4 -6 -14 -14z m79
-11 c20 -16 20 -16 -3 -9 -17 5 -27 2 -37 -12 -18 -22 -19 -10 -3 17 15 24 17
24 43 4z m0 -33 c-3 -5 2 -12 10 -14 12 -4 12 -5 -1 -3 -19 1 -32 26 -14 26 6
0 9 -4 5 -9z m-55 -25 c0 -2 -7 -7 -16 -10 -8 -3 -12 -2 -9 4 6 10 25 14 25 6z
m-80 -20 c0 -3 -4 -8 -10 -11 -5 -3 -10 -1 -10 4 0 6 5 11 10 11 6 0 10 -2 10
-4z m100 -26 c0 -5 -9 -10 -20 -10 -11 0 -20 5 -20 10 0 6 9 10 20 10 11 0 20
-4 20 -10z m175 -20 c-22 -8 -45 -3 -45 10 0 14 24 18 45 7 19 -10 19 -10 0
-17z m-145 -211 c0 -5 -4 -9 -8 -9 -5 0 -9 7 -9 15 0 8 4 12 9 9 4 -3 8 -9 8
-15z"/>
<path d="M6125 9040 c-3 -5 1 -10 10 -10 9 0 13 5 10 10 -3 6 -8 10 -10 10 -2
0 -7 -4 -10 -10z"/>
<path d="M4327 9019 c7 -7 15 -10 18 -7 3 3 -2 9 -12 12 -14 6 -15 5 -6 -5z"/>
<path d="M9670 9006 c0 -10 9 -16 21 -16 24 0 21 23 -4 28 -10 2 -17 -3 -17
-12z"/>
<path d="M9640 8985 c0 -8 4 -15 10 -15 5 0 7 7 4 15 -4 8 -8 15 -10 15 -2 0
-4 -7 -4 -15z"/>
<path d="M9970 8980 c-14 -11 -20 -20 -13 -20 6 0 14 4 18 9 6 11 45 11 45 0
0 -4 10 -9 23 -12 19 -5 18 -3 -8 18 -36 30 -34 30 -65 5z"/>
<path d="M9690 8970 c-18 -6 -20 -8 -7 -9 10 -1 15 -5 12 -11 -9 -14 7 -12 27
4 10 7 15 16 11 19 -7 8 -9 8 -43 -3z"/>
<path d="M9830 8912 c-52 -26 -101 -53 -108 -59 -7 -7 -20 -13 -28 -13 -8 0
-14 -7 -14 -16 0 -13 5 -12 26 5 15 12 33 21 41 21 8 0 27 8 41 18 15 10 52
31 82 46 121 63 88 61 -40 -2z"/>
<path d="M7948 8851 c12 -11 17 -21 11 -23 -7 -2 -5 -9 5 -17 14 -12 16 -12
10 3 -7 19 7 21 24 4 7 -7 12 -8 12 -2 0 6 -11 17 -25 24 -14 7 -25 17 -25 22
0 4 -8 8 -17 8 -15 -1 -15 -3 5 -19z"/>
<path d="M7907 8829 c-4 -16 -3 -18 9 -8 16 13 19 29 5 29 -5 0 -11 -9 -14
-21z"/>
<path d="M9748 8823 c7 -3 16 -2 19 1 4 3 -2 6 -13 5 -11 0 -14 -3 -6 -6z"/>
<path d="M7848 8802 c-4 -12 -2 -24 2 -27 13 -8 18 8 10 29 -6 19 -7 19 -12
-2z"/>
<path d="M5062 8790 c-39 -37 -22 -87 35 -104 27 -9 73 32 73 63 0 26 -38 61
-65 61 -12 0 -31 -9 -43 -20z m70 -7 c31 -28 21 -60 -24 -76 -38 -14 -63 47
-32 77 20 20 33 20 56 -1z"/>
<path d="M8020 8795 c0 -8 5 -15 10 -15 6 0 10 7 10 15 0 8 -4 15 -10 15 -5 0
-10 -7 -10 -15z"/>
<path d="M9700 8761 c0 -27 4 -40 10 -36 6 4 9 20 6 37 -7 46 -16 46 -16 -1z"/>
<path d="M7420 8781 c0 -11 31 -24 38 -16 3 3 0 5 -7 5 -7 0 -9 5 -6 10 3 6
-1 10 -9 10 -9 0 -16 -4 -16 -9z"/>
<path d="M9970 8780 c0 -5 7 -10 15 -10 8 0 15 5 15 10 0 6 -7 10 -15 10 -8 0
-15 -4 -15 -10z"/>
<path d="M10035 8781 c-3 -5 -1 -12 5 -16 5 -3 10 1 10 9 0 18 -6 21 -15 7z"/>
<path d="M9885 8769 c-11 -17 1 -21 15 -4 8 9 8 15 2 15 -6 0 -14 -5 -17 -11z"/>
<path d="M9910 8750 c-40 -40 -13 -110 43 -110 20 0 67 46 67 65 0 20 -48 65
-70 65 -11 0 -29 -9 -40 -20z"/>
<path d="M10000 8764 c0 -10 28 -33 33 -27 3 3 0 12 -8 19 -14 15 -25 18 -25
8z"/>
<path d="M8026 8752 c-2 -4 -1 -14 5 -22 7 -12 9 -10 9 8 0 23 -5 28 -14 14z"/>
<path d="M5201 8734 c0 -11 3 -14 6 -6 3 7 2 16 -1 19 -3 4 -6 -2 -5 -13z"/>
<path d="M10040 8711 c0 -10 19 -25 25 -20 1 2 -3 10 -11 17 -8 7 -14 8 -14 3z"/>
<path d="M5210 8700 c0 -5 5 -10 10 -10 6 0 10 5 10 10 0 6 -4 10 -10 10 -5 0
-10 -4 -10 -10z"/>
<path d="M9845 8700 c-3 -5 1 -10 9 -10 9 0 16 5 16 10 0 6 -4 10 -9 10 -6 0
-13 -4 -16 -10z"/>
<path d="M7560 8655 c7 -9 15 -13 17 -11 7 7 -7 26 -19 26 -6 0 -6 -6 2 -15z"/>
<path d="M10081 8654 c0 -11 3 -14 6 -6 3 7 2 16 -1 19 -3 4 -6 -2 -5 -13z"/>
<path d="M8027 8603 c8 -76 13 -80 13 -10 0 31 -4 58 -9 62 -6 3 -7 -18 -4
-52z"/>
<path d="M10006 8651 c-4 -7 -5 -15 -2 -18 9 -9 19 4 14 18 -4 11 -6 11 -12 0z"/>
<path d="M5335 8630 c3 -5 8 -10 11 -10 2 0 4 5 4 10 0 6 -5 10 -11 10 -5 0
-7 -4 -4 -10z"/>
<path d="M9966 8581 c-3 -5 4 -11 16 -14 30 -8 35 -1 9 12 -11 6 -22 7 -25 2z"/>
<path d="M7690 8553 c1 -18 18 -35 24 -24 4 6 4 16 1 21 -7 12 -25 13 -25 3z"/>
<path d="M7620 8541 c0 -5 6 -14 13 -20 10 -8 14 -7 14 4 0 8 -6 16 -14 19 -7
3 -13 2 -13 -3z"/>
<path d="M10015 8541 c-6 -11 9 -23 19 -14 9 9 7 23 -3 23 -6 0 -12 -4 -16 -9z"/>
<path d="M7850 8500 c0 -5 5 -10 11 -10 5 0 7 5 4 10 -3 6 -8 10 -11 10 -2 0
-4 -4 -4 -10z"/>
<path d="M7958 8323 c6 -2 18 -2 25 0 6 3 1 5 -13 5 -14 0 -19 -2 -12 -5z"/>
<path d="M7990 8290 c-13 -8 -12 -10 3 -10 9 0 17 5 17 10 0 12 -1 12 -20 0z"/>
<path d="M7936 8264 c-3 -8 -9 -13 -14 -10 -11 6 -38 -11 -30 -19 8 -8 68 25
68 37 0 14 -18 8 -24 -8z"/>
<path d="M7366 8224 c-5 -12 -2 -15 10 -10 8 3 18 6 20 6 3 0 2 5 -1 10 -9 15
-22 12 -29 -6z"/>
<path d="M7220 8165 c0 -8 4 -15 10 -15 5 0 7 7 4 15 -4 8 -8 15 -10 15 -2 0
-4 -7 -4 -15z"/>
<path d="M7090 7620 c-8 -5 -12 -11 -9 -14 2 -3 11 -1 19 4 8 5 12 11 9 14 -2
3 -11 1 -19 -4z"/>
<path d="M7097 7594 c-11 -11 15 -64 31 -64 16 1 16 2 1 13 -9 7 -15 20 -13
29 2 19 -9 32 -19 22z"/>
<path d="M7426 7461 c5 -5 20 -12 34 -15 l25 -7 -25 15 c-28 17 -50 21 -34 7z"/>
<path d="M6885 5910 c3 -5 8 -10 11 -10 2 0 4 5 4 10 0 6 -5 10 -11 10 -5 0
-7 -4 -4 -10z"/>
<path d="M8595 5651 c17 -12 35 -21 41 -21 6 0 21 -9 33 -19 13 -11 36 -23 52
-26 16 -4 29 -10 29 -15 0 -5 17 -14 38 -21 20 -6 41 -17 45 -23 6 -7 7 -6 5
3 -3 8 -55 41 -117 72 -124 64 -176 85 -126 50z"/>
<path d="M8560 5183 c0 -23 15 -39 24 -25 3 5 -1 18 -9 28 -14 18 -14 18 -15
-3z"/>
<path d="M7801 5134 c-1 -23 25 -51 37 -40 4 4 0 13 -9 19 -9 7 -18 19 -22 27
-4 11 -6 9 -6 -6z"/>
<path d="M4945 4972 c-93 -52 -117 -70 -106 -76 6 -4 11 -4 11 1 0 4 28 22 63
38 34 17 65 34 68 39 4 4 9 3 13 -2 4 -6 14 -8 23 -5 12 5 15 2 10 -9 -4 -12
-1 -14 14 -11 26 7 24 20 -6 27 -14 4 -25 11 -25 16 0 15 -11 12 -65 -18z"/>
<path d="M6950 4940 c-104 -55 -137 -77 -128 -86 3 -3 56 20 117 50 l110 56
113 -62 c146 -79 229 -120 234 -115 9 9 -69 59 -193 126 -70 39 -135 72 -143
75 -8 3 -58 -17 -110 -44z"/>
<path d="M8070 4977 c-14 -6 -44 -19 -67 -30 -24 -11 -41 -23 -38 -27 3 -4 34
8 70 27 36 19 73 32 81 29 9 -3 12 -1 9 4 -8 13 -23 12 -55 -3z"/>
<path d="M8340 4970 c0 -5 5 -10 11 -10 5 0 7 5 4 10 -3 6 -8 10 -11 10 -2 0
-4 -4 -4 -10z"/>
<path d="M4960 4944 c-14 -7 -21 -14 -16 -14 5 0 2 -7 -5 -17 -13 -15 -12 -15
9 -4 12 6 22 16 22 21 0 6 9 10 21 10 11 0 17 5 14 10 -8 12 -14 12 -45 -6z"/>
<path d="M8410 4950 c0 -5 5 -10 11 -10 5 0 7 5 4 10 -3 6 -8 10 -11 10 -2 0
-4 -4 -4 -10z"/>
<path d="M8220 4916 c0 -2 7 -7 16 -10 8 -3 12 -2 9 4 -6 10 -25 14 -25 6z"/>
<path d="M8300 4876 c0 -2 7 -7 16 -10 8 -3 12 -2 9 4 -6 10 -25 14 -25 6z"/>
<path d="M8360 4840 c14 -11 30 -20 35 -20 6 0 -1 9 -15 20 -14 11 -29 20 -35
20 -5 0 1 -9 15 -20z"/>
<path d="M8754 4809 c-31 -34 -9 -88 37 -89 43 -1 67 80 30 100 -29 15 -46 12
-67 -11z m64 -22 c2 -12 -1 -15 -12 -11 -9 3 -14 10 -11 14 3 5 -1 11 -7 14
-7 3 -4 5 7 3 11 -1 21 -10 23 -20z"/>
<path d="M8415 4810 c3 -5 11 -10 16 -10 6 0 7 5 4 10 -3 6 -11 10 -16 10 -6
0 -7 -4 -4 -10z"/>
<path d="M10130 4803 c1 -18 59 -83 65 -73 4 6 -6 26 -22 45 -27 32 -43 43
-43 28z"/>
<path d="M8466 4781 c10 -10 21 -17 23 -15 6 6 -20 34 -32 34 -6 0 -2 -8 9
-19z"/>
<path d="M7578 4753 c6 -2 18 -2 25 0 6 3 1 5 -13 5 -14 0 -19 -2 -12 -5z"/>
<path d="M7506 4719 c-25 -30 -33 -70 -20 -104 5 -13 9 -14 15 -4 4 7 3 21 -2
30 -6 12 -4 22 6 33 9 8 14 21 13 28 -2 7 7 17 20 23 25 11 29 25 8 25 -8 0
-26 -14 -40 -31z"/>
<path d="M7620 4740 c0 -5 5 -10 11 -10 5 0 7 5 4 10 -3 6 -8 10 -11 10 -2 0
-4 -4 -4 -10z"/>
<path d="M4660 4681 c0 -23 2 -41 4 -41 8 0 12 71 4 76 -4 3 -8 -13 -8 -35z"/>
<path d="M10200 4707 c0 -9 6 -20 14 -24 7 -4 16 -15 19 -23 4 -11 6 -9 6 6 1
11 -8 29 -19 39 -18 16 -20 16 -20 2z"/>
<path d="M7535 4691 c4 -13 0 -23 -12 -30 -10 -5 -14 -13 -10 -17 4 -4 19 3
33 17 14 13 27 23 30 22 2 -2 14 -3 26 -3 17 0 19 3 10 12 -8 8 -15 8 -25 -1
-11 -9 -17 -8 -27 4 -18 21 -33 19 -25 -4z"/>
<path d="M7630 4679 c0 -5 5 -7 10 -4 6 3 10 8 10 11 0 2 -4 4 -10 4 -5 0 -10
-5 -10 -11z"/>
<path d="M1 4669 c-1 -19 13 -47 53 -106 33 -49 54 -58 28 -13 -9 16 -20 30
-24 30 -5 0 -8 6 -8 14 0 8 -7 21 -15 30 -8 8 -19 25 -24 38 -7 15 -10 18 -10
7z"/>
<path d="M160 4610 c0 -5 5 -10 11 -10 5 0 7 5 4 10 -3 6 -8 10 -11 10 -2 0
-4 -4 -4 -10z"/>
<path d="M5645 4511 c-10 -17 12 -65 42 -91 26 -24 43 -30 78 -30 58 0 85 13
114 56 22 32 22 47 0 50 -5 1 -10 2 -11 3 -2 1 -37 3 -78 5 -41 3 -90 6 -108
8 -18 2 -35 2 -37 -1z"/>
<path d="M166 4494 c-5 -14 -4 -15 9 -4 17 14 19 20 6 20 -5 0 -12 -7 -15 -16z"/>
<path d="M112 4486 c7 -8 15 -12 17 -11 5 6 -10 25 -20 25 -5 0 -4 -6 3 -14z"/>
<path d="M4704 4459 c-3 -6 -1 -16 5 -22 8 -8 11 -5 11 11 0 24 -5 28 -16 11z"/>
<path d="M6049 4311 c12 -22 21 -45 21 -50 0 -6 -40 -31 -88 -56 -49 -25 -97
-52 -108 -61 -23 -19 -23 -19 97 39 110 53 144 63 162 50 6 -6 92 -52 191
-103 l178 -93 37 18 c35 17 35 18 12 26 -13 5 -35 22 -50 37 -41 43 -102 87
-148 107 -23 10 -40 22 -37 27 4 5 0 8 -7 7 -18 -3 -47 10 -80 34 -24 17 -61
25 -146 30 -17 1 -31 6 -30 11 1 5 -4 11 -11 13 -9 4 -7 -8 7 -36z"/>
<path d="M7650 4257 c-75 -33 -129 -61 -318 -162 -24 -13 -54 -22 -68 -20 -26
2 -32 -16 -11 -33 12 -10 47 1 87 28 29 19 325 160 336 160 14 0 26 25 17 34
-8 8 -13 7 -43 -7z"/>
<path d="M9075 4135 l-190 -103 0 -271 c0 -259 1 -271 20 -285 11 -8 102 -56
201 -108 l182 -93 103 54 c57 29 143 76 192 104 l87 49 0 279 0 279 -32 20
c-63 39 -346 180 -360 179 -7 0 -98 -47 -203 -104z"/>
<path d="M4645 4200 c-3 -5 -1 -10 4 -10 6 0 11 5 11 10 0 6 -2 10 -4 10 -3 0
-8 -4 -11 -10z"/>
<path d="M7817 4149 c7 -7 15 -10 18 -7 3 3 -2 9 -12 12 -14 6 -15 5 -6 -5z"/>
<path d="M3143 4125 c-66 -28 -81 -89 -33 -137 26 -25 36 -29 62 -24 65 13
100 73 74 125 -20 38 -62 53 -103 36z"/>
<path d="M7874 4121 c8 -13 146 -84 152 -79 2 2 -33 23 -78 47 -44 24 -77 38
-74 32z"/>
<path d="M3810 4034 c0 -4 14 -20 30 -36 35 -33 40 -23 7 15 -22 26 -37 34
-37 21z"/>
<path d="M4140 3985 c0 -14 34 -64 47 -69 10 -4 10 1 -1 22 -15 29 -46 61 -46
47z"/>
<path d="M8491 3872 c-13 -25 5 -52 34 -52 29 0 47 46 24 61 -23 14 -48 10
-58 -9z m34 -11 c-3 -6 -11 -11 -17 -11 -6 0 -6 6 2 15 14 17 26 13 15 -4z"/>
<path d="M6735 3820 c3 -5 11 -10 16 -10 6 0 7 5 4 10 -3 6 -11 10 -16 10 -6
0 -7 -4 -4 -10z"/>
<path d="M420 3805 c0 -8 4 -15 10 -15 5 0 7 7 4 15 -4 8 -8 15 -10 15 -2 0
-4 -7 -4 -15z"/>
<path d="M6778 3813 c7 -3 16 -2 19 1 4 3 -2 6 -13 5 -11 0 -14 -3 -6 -6z"/>
<path d="M4402 3788 c-12 -12 1 -48 18 -48 16 0 39 31 34 45 -7 18 -35 20 -52
3z"/>
<path d="M445 3750 c3 -5 8 -10 11 -10 2 0 4 5 4 10 0 6 -5 10 -11 10 -5 0 -7
-4 -4 -10z"/>
<path d="M5962 3738 c-27 -27 -6 -68 35 -68 31 0 52 42 33 65 -15 18 -51 20
-68 3z m52 -13 c7 -19 -3 -47 -15 -40 -4 3 -6 12 -2 20 3 8 0 15 -6 15 -6 0
-11 -5 -11 -12 0 -6 -3 -8 -6 -5 -8 7 14 37 26 37 4 0 10 -7 14 -15z"/>
<path d="M322 3707 c-39 -41 -20 -81 35 -75 38 4 55 49 28 78 -23 26 -37 25
-63 -3z"/>
<path d="M5572 3608 c-28 -28 -1 -75 37 -63 11 3 23 15 26 26 12 38 -35 65
-63 37z"/>
<path d="M2966 3456 c10 -8 21 -12 24 -10 5 6 -21 24 -34 24 -6 0 -1 -6 10
-14z"/>
<path d="M3710 3430 c-9 -6 -10 -10 -3 -10 6 0 15 5 18 10 8 12 4 12 -15 0z"/>
<path d="M3580 3363 c-137 -72 -207 -113 -197 -113 5 0 37 15 70 34 34 18 99
52 144 75 46 24 85 47 89 52 7 13 10 14 -106 -48z"/>
<path d="M4194 3363 c-119 -64 -112 -58 -90 -82 11 -12 28 -21 38 -21 17 0
148 119 148 134 0 14 -31 4 -96 -31z"/>
<path d="M5606 3375 c-27 -14 -79 -42 -117 -61 -38 -20 -66 -40 -63 -45 3 -5
53 15 112 46 58 30 112 55 119 55 8 0 28 -7 44 -16 17 -8 33 -13 36 -10 3 3
-11 13 -31 22 -20 10 -36 21 -36 26 0 13 -14 9 -64 -17z"/>
<path d="M3145 3360 c3 -5 11 -10 16 -10 6 0 7 5 4 10 -3 6 -11 10 -16 10 -6
0 -7 -4 -4 -10z"/>
<path d="M10163 3292 l-63 -37 0 -250 0 -250 38 -22 c20 -12 52 -32 70 -44
l32 -21 0 331 c0 182 -3 331 -7 331 -5 -1 -36 -18 -70 -38z"/>
<path d="M5182 3186 c-41 -14 -32 -27 10 -15 24 7 37 4 60 -12 15 -11 34 -18
41 -15 7 3 3 7 -10 11 -13 4 -23 11 -23 15 0 17 -46 27 -78 16z"/>
<path d="M3190 3150 c-12 -8 -12 -11 3 -28 9 -10 17 -23 17 -29 0 -5 13 -23
30 -39 16 -16 30 -33 30 -39 0 -5 16 -28 36 -50 20 -22 31 -33 25 -24 -6 9 -9
34 -7 56 4 32 0 47 -19 73 -14 19 -25 43 -25 53 0 17 -3 16 -21 -6 -20 -26
-20 -26 -41 -7 -12 11 -18 25 -15 34 7 18 7 19 -13 6z m90 -90 c0 -5 -7 -7
-15 -4 -8 4 -15 8 -15 10 0 2 7 4 15 4 8 0 15 -4 15 -10z"/>
<path d="M5177 3123 c4 -9 15 -25 26 -36 17 -17 19 -18 14 -3 -4 10 -7 22 -7
27 0 6 -4 7 -10 4 -5 -3 -10 1 -10 9 0 9 -4 16 -10 16 -5 0 -6 -8 -3 -17z"/>
<path d="M5135 3065 c3 -33 6 -138 8 -234 2 -139 -1 -175 -12 -179 -9 -3 -11
1 -6 17 5 17 2 21 -14 21 -28 0 -38 -20 -17 -36 11 -8 13 -14 7 -19 -14 -8
-14 -52 -1 -60 15 -9 12 -25 -5 -25 -8 0 -15 -6 -15 -12 -1 -7 -15 -22 -33
-33 -34 -21 -105 -150 -106 -192 -1 -12 -8 -28 -16 -37 -13 -12 -15 -42 -13
-173 l3 -158 205 -104 205 -104 158 87 c87 47 174 93 192 101 l35 14 0 274 0
274 -137 71 c-250 128 -258 133 -260 172 -11 146 -16 182 -24 169 -7 -11 -9
-11 -9 -1 0 7 -5 10 -11 6 -7 -4 -10 -1 -7 7 3 8 11 13 17 12 13 -3 14 16 2
35 -6 11 -10 10 -15 -5 -6 -15 -11 -12 -32 22 -13 22 -23 48 -20 57 2 11 -1
15 -11 11 -11 -4 -13 -16 -8 -47 7 -39 6 -40 -9 -21 -11 14 -15 16 -16 6 0
-32 -12 1 -16 48 -2 27 -9 61 -14 73 -7 17 -8 7 -5 -37z m462 -1151 c-3 -3
-12 -4 -19 -1 -8 3 -5 6 6 6 11 1 17 -2 13 -5z"/>
<path d="M5220 3023 c0 -5 5 -15 10 -23 8 -12 10 -11 10 8 0 12 -4 22 -10 22
-5 0 -10 -3 -10 -7z"/>
<path d="M2895 2900 c3 -5 8 -10 11 -10 2 0 4 5 4 10 0 6 -5 10 -11 10 -5 0
-7 -4 -4 -10z"/>
<path d="M7993 2656 c-51 -27 -91 -51 -89 -54 2 -2 45 18 96 43 l92 46 61 -38
c86 -53 227 -126 227 -116 0 4 -19 17 -43 29 -23 11 -87 47 -142 78 -55 32
-102 59 -105 61 -3 1 -47 -21 -97 -49z"/>
<path d="M3740 2651 c0 -6 4 -13 10 -16 6 -3 7 1 4 9 -7 18 -14 21 -14 7z"/>
<path d="M18 2573 c-16 -4 -18 -20 -18 -149 0 -118 3 -144 14 -144 8 0 16 -4
18 -10 2 -5 28 3 58 18 65 33 90 73 90 147 0 45 -4 55 -37 89 -49 50 -78 62
-125 49z"/>
<path d="M10209 2555 c-14 -8 -36 -34 -49 -58 -22 -41 -23 -47 -10 -91 8 -29
27 -62 49 -84 l36 -37 3 73 c2 39 2 103 0 141 l-3 69 -26 -13z"/>
<path d="M8114 2520 c-55 -22 -81 -109 -49 -169 22 -43 72 -81 106 -81 69 0
129 58 129 124 0 97 -96 162 -186 126z"/>
<path d="M7710 2220 l-5 -285 -43 -23 c-56 -31 -48 -40 10 -11 l44 21 110 -57
c60 -32 142 -75 183 -97 40 -22 75 -37 77 -35 5 4 -126 78 -263 147 l-103 52
-2 286 -3 287 -5 -285z"/>
<path d="M3192 2467 c-12 -13 -22 -31 -22 -39 0 -20 46 -58 70 -58 27 0 63 45
55 69 -17 53 -67 67 -103 28z"/>
<path d="M772 2418 c-18 -18 -14 -56 6 -67 24 -13 65 7 70 34 7 34 -50 59 -76
33z"/>
<path d="M657 2361 c-3 -12 -1 -21 3 -21 15 0 23 21 12 32 -6 6 -11 2 -15 -11z"/>
<path d="M3791 2014 c10 -13 10 -17 0 -24 -8 -4 -12 -13 -9 -20 3 -9 9 -8 21
4 13 13 15 22 7 37 -6 10 -16 19 -22 19 -6 0 -6 -6 3 -16z"/>
<path d="M4870 1903 c-13 -15 -12 -16 3 -10 12 5 84 -26 218 -94 110 -56 203
-99 206 -95 4 3 4 8 2 10 -7 6 -405 206 -410 206 -2 -1 -11 -8 -19 -17z"/>
<path d="M6448 1873 c-57 -32 -57 -43 1 -14 22 12 45 21 50 21 10 0 178 -78
314 -146 37 -19 67 -32 67 -29 0 4 -378 196 -383 194 -1 0 -23 -12 -49 -26z"/>
<path d="M4170 1886 c0 -2 7 -9 15 -16 9 -7 15 -8 15 -2 0 5 -7 12 -15 16 -8
3 -15 4 -15 2z"/>
<path d="M4120 1860 c-9 -6 -10 -10 -3 -10 6 0 15 5 18 10 8 12 4 12 -15 0z"/>
<path d="M4690 1809 c-127 -67 -126 -66 -117 -75 6 -6 237 123 237 132 0 6 1
7 -120 -57z"/>
<path d="M4235 1840 c3 -5 11 -10 16 -10 6 0 7 5 4 10 -3 6 -11 10 -16 10 -6
0 -7 -4 -4 -10z"/>
<path d="M4075 1830 c-3 -6 1 -7 9 -4 18 7 21 14 7 14 -6 0 -13 -4 -16 -10z"/>
<path d="M6360 1825 c-14 -8 -20 -14 -14 -15 5 0 19 7 30 15 24 18 16 19 -16
0z"/>
<path d="M4284 1815 c11 -8 24 -15 30 -15 5 0 1 7 -10 15 -10 8 -23 14 -29 14
-5 0 -1 -6 9 -14z"/>
<path d="M6310 1800 c-9 -6 -10 -10 -3 -10 6 0 15 5 18 10 8 12 4 12 -15 0z"/>
<path d="M4344 1786 c11 -9 24 -16 30 -16 12 0 7 5 -24 19 -24 11 -24 11 -6
-3z"/>
<path d="M3819 1763 c-1 -11 2 -391 4 -543 l2 -125 150 -77 c156 -80 169 -86
163 -67 -3 10 -250 146 -293 162 -5 3 -7 8 -3 12 7 7 108 -41 226 -107 17 -9
32 -14 32 -10 0 5 -11 15 -25 22 -14 7 -25 19 -25 27 0 20 12 16 48 -17 22
-19 31 -34 26 -42 -6 -10 -4 -10 9 1 9 7 14 18 10 25 -4 6 -8 28 -9 49 l-2 38
31 -31 c41 -40 59 -41 38 -1 -9 15 -6 17 20 13 17 -3 29 0 29 7 0 6 -4 11 -10
11 -5 0 -10 5 -10 10 0 17 26 11 45 -10 35 -39 48 -22 15 20 -18 23 -31 43
-28 45 2 2 28 -2 58 -10 56 -15 67 -14 55 4 -3 6 -17 8 -29 5 -16 -4 -25 0
-30 12 -8 22 1 31 16 16 49 -49 5 47 -66 143 -29 39 -87 118 -131 178 -44 59
-83 107 -87 107 -4 0 -11 -6 -15 -14 -20 -33 -115 -50 -141 -24 -16 16 -15 43
1 60 43 42 14 118 -44 118 -16 0 -29 -3 -30 -7z m431 -533 c9 -16 8 -18 -5
-14 -8 4 -15 12 -15 20 0 20 7 17 20 -6z m-213 -155 c0 -8 -4 -15 -9 -15 -10
0 -11 14 -1 23 9 10 10 9 10 -8z m93 -15 c0 -5 -2 -10 -4 -10 -3 0 -8 5 -11
10 -3 6 -1 10 4 10 6 0 11 -4 11 -10z"/>
<path d="M4397 1759 c7 -7 15 -10 18 -7 3 3 -2 9 -12 12 -14 6 -15 5 -6 -5z"/>
<path d="M6230 1760 c-13 -8 -13 -10 2 -10 9 0 20 5 23 10 8 13 -5 13 -25 0z"/>
<path d="M4460 1720 c33 -26 48 -26 25 0 -10 11 -25 20 -34 20 -12 0 -9 -6 9
-20z"/>
<path d="M6168 1724 l-28 -15 0 -269 c0 -149 3 -270 8 -270 4 0 5 119 4 265
l-4 264 34 21 c38 23 27 27 -14 4z"/>
<path d="M4754 1640 c-36 -14 -64 -59 -64 -102 0 -51 11 -71 54 -96 30 -17 34
-25 33 -57 -1 -50 50 -100 92 -90 35 9 61 33 61 57 0 11 8 22 19 25 10 2 24
15 31 28 11 20 10 28 -3 49 -9 13 -26 27 -37 31 -14 5 -20 15 -20 38 0 84 -90
148 -166 117z"/>
<path d="M9277 1644 c-15 -15 -7 -53 13 -59 27 -8 52 12 48 39 -3 21 -46 35
-61 20z"/>
<path d="M5141 1631 c-15 -10 -8 -41 9 -41 15 0 25 29 14 40 -5 5 -15 5 -23 1z"/>
<path d="M3535 1590 c-10 -11 -15 -23 -11 -27 4 -4 11 -1 15 6 6 8 11 9 15 3
3 -6 -1 -17 -9 -26 -14 -14 -13 -17 11 -32 24 -16 29 -16 53 -3 14 8 27 25 29
38 8 52 -66 82 -103 41z m75 -10 c0 -5 -2 -10 -4 -10 -3 0 -8 5 -11 10 -3 6
-1 10 4 10 6 0 11 -4 11 -10z"/>
<path d="M8960 1594 c0 -17 22 -14 28 4 2 7 -3 12 -12 12 -9 0 -16 -7 -16 -16z"/>
<path d="M56 1551 c-28 -30 -24 -80 8 -108 33 -28 56 -29 90 -2 33 26 36 79 6
109 -26 26 -81 26 -104 1z"/>
<path d="M5082 1548 c-30 -30 3 -77 40 -57 30 16 16 69 -17 69 -6 0 -16 -5
-23 -12z"/>
<path d="M8406 1311 c-22 -24 -14 -55 20 -77 22 -15 26 -15 49 0 27 18 34 63
13 84 -18 18 -63 14 -82 -7z m57 -8 c-7 -2 -19 -2 -25 0 -7 3 -2 5 12 5 14 0
19 -2 13 -5z"/>
<path d="M4545 1170 c3 -5 11 -10 16 -10 6 0 7 5 4 10 -3 6 -11 10 -16 10 -6
0 -7 -4 -4 -10z"/>
<path d="M4490 1150 c0 -6 -16 -20 -35 -32 -45 -26 -38 -36 9 -14 19 9 41 16
50 16 22 0 20 17 -4 30 -14 8 -20 8 -20 0z"/>
<path d="M4580 1156 c0 -9 61 -38 67 -32 3 3 -7 10 -22 16 -15 6 -32 13 -36
16 -5 3 -9 3 -9 0z"/>
<path d="M6015 1095 c-55 -30 -141 -75 -191 -101 l-92 -48 9 -30 c5 -17 9 -75
9 -129 0 -66 3 -96 10 -92 6 4 9 20 6 36 -2 16 -1 29 3 29 4 0 43 -53 87 -117
43 -65 110 -162 149 -216 38 -54 75 -107 81 -118 22 -38 56 -60 86 -54 21 5
28 3 28 -9 0 -9 -5 -16 -11 -16 -5 0 -7 -5 -4 -10 4 -6 11 -8 16 -5 5 4 9 -1
9 -9 0 -8 -5 -18 -11 -22 -6 -3 -9 -15 -6 -25 3 -10 1 -22 -5 -25 -5 -4 -7
-20 -4 -36 3 -18 2 -27 -4 -23 -6 3 -11 -6 -11 -22 -2 -26 -2 -25 -8 6 -7 37
-31 55 -31 23 0 -11 -3 -33 -6 -50 -6 -29 -5 -30 31 -30 28 0 38 5 45 22 l9
21 0 -22 c1 -34 47 -32 55 2 7 26 26 35 26 13 0 -9 4 -8 10 2 6 10 10 11 10 3
0 -22 16 -14 30 15 l13 27 11 -34 c10 -28 14 -31 24 -18 7 8 11 20 10 27 -2 7
2 14 8 17 6 2 14 -10 17 -27 4 -18 13 -30 22 -30 13 0 14 4 5 20 -8 15 -8 20
1 20 6 0 13 -9 16 -20 3 -11 9 -20 14 -20 8 0 1 30 -10 40 -3 3 -17 28 -31 55
-14 28 -29 53 -34 57 -6 4 -4 13 3 22 10 11 18 13 31 6 29 -16 38 -12 32 15
-2 14 -8 22 -12 20 -5 -3 -11 -1 -14 4 -4 5 5 18 19 29 17 13 21 22 13 25 -10
3 -8 10 5 25 11 12 25 18 35 15 12 -5 14 -2 9 11 -5 12 -3 16 5 13 7 -2 12
-10 10 -16 -1 -7 2 -10 7 -7 5 4 62 -19 127 -50 64 -31 131 -60 148 -65 29 -8
30 -7 11 7 -11 8 -86 49 -166 90 l-146 74 -6 136 c-4 76 -7 194 -7 264 l0 127
93 46 c50 26 138 72 195 103 97 53 104 55 126 41 33 -22 147 -69 153 -63 3 3
-35 25 -84 50 l-90 45 -159 -81 c-87 -44 -172 -90 -187 -101 l-28 -19 -207
105 -207 105 -100 -53z m450 -165 c3 -5 1 -10 -4 -10 -6 0 -11 5 -11 10 0 6 2
10 4 10 3 0 8 -4 11 -10z m-326 -557 c12 -18 19 -33 14 -33 -9 0 -43 52 -43
66 0 9 -1 9 29 -33z m361 12 c7 -9 8 -15 2 -15 -5 0 -12 7 -16 15 -3 8 -4 15
-2 15 2 0 9 -7 16 -15z m-320 -90 c0 -5 -5 -3 -10 5 -5 8 -10 20 -10 25 0 6 5
3 10 -5 5 -8 10 -19 10 -25z m136 -152 c-10 -10 -19 5 -10 18 6 11 8 11 12 0
2 -7 1 -15 -2 -18z m74 -23 c0 -5 -4 -10 -10 -10 -5 0 -10 5 -10 10 0 6 5 10
10 10 6 0 10 -4 10 -10z m-58 -31 c-5 -11 -11 -20 -15 -20 -8 1 -8 0 -1 28 4
13 10 20 15 18 4 -3 5 -15 1 -26z"/>
<path d="M9565 1104 c-44 -25 -125 -69 -180 -96 -55 -28 -104 -57 -108 -64 -7
-12 -13 -12 -37 1 -32 16 -66 22 -42 6 11 -6 10 -10 -4 -15 -9 -4 -22 -1 -28
5 -8 9 -7 10 3 4 10 -6 12 -4 7 4 -5 7 -14 10 -22 7 -8 -3 -14 1 -14 9 0 20
-10 19 -25 -2 -11 -15 -13 -15 -25 6 -10 19 -10 22 2 16 7 -3 4 1 -6 9 -11 9
-28 14 -37 11 -10 -3 -21 0 -25 6 -4 7 -3 9 4 5 5 -3 12 0 14 6 3 9 18 6 54
-12 27 -14 52 -29 55 -34 4 -4 12 -7 20 -4 14 5 -34 34 -237 143 l-51 27 -148
-81 c-81 -45 -151 -81 -154 -81 -15 -1 -42 -30 -37 -39 6 -10 94 32 248 119
98 56 100 56 178 18 38 -18 70 -36 70 -39 0 -4 -9 -9 -20 -12 -11 -3 -20 -1
-20 3 0 12 -61 41 -71 34 -5 -3 -6 3 -3 13 4 13 1 12 -14 -6 -16 -20 -22 -22
-41 -12 -12 7 -27 10 -34 7 -9 -3 -9 -5 1 -5 6 -1 12 -5 12 -10 0 -4 -11 -6
-25 -3 -18 3 -25 0 -23 -9 2 -8 -4 -13 -14 -11 -19 3 -72 -27 -63 -36 3 -3 13
2 24 12 17 15 19 15 25 1 3 -9 2 -13 -4 -10 -6 3 -16 3 -22 -2 -7 -4 -22 -8
-33 -8 -11 0 -19 -5 -18 -11 1 -7 -5 -10 -15 -8 -9 3 -35 -7 -57 -20 -22 -14
-34 -26 -27 -26 15 0 52 -36 52 -50 0 -5 5 -10 10 -10 6 0 10 -7 10 -15 0 -8
5 -15 10 -15 6 0 10 -5 10 -11 0 -6 10 -24 23 -39 12 -16 45 -61 72 -100 28
-39 58 -81 68 -92 9 -12 17 -27 17 -34 0 -7 13 -26 30 -42 29 -29 29 -31 14
-62 -15 -30 -15 -67 1 -117 4 -14 3 -23 -3 -23 -6 0 -12 8 -15 17 -3 14 -7 10
-16 -14 -7 -17 -20 -33 -29 -35 -12 -3 -8 -8 16 -20 28 -15 47 -9 22 7 -6 4
-7 11 -4 17 5 7 12 5 20 -7 14 -18 51 -14 39 5 -4 6 -10 8 -15 5 -5 -3 -12 0
-16 6 -4 8 -3 9 4 5 7 -4 12 -2 12 3 0 6 9 2 20 -9 11 -11 20 -22 20 -24 0 -2
-15 -13 -34 -24 l-34 -20 -114 61 c-63 34 -137 73 -165 86 l-50 23 -2 245 c-1
134 -6 254 -11 266 -5 14 -8 -85 -7 -253 l2 -275 173 -88 172 -88 116 56 c124
59 155 67 147 36 -4 -15 9 -25 63 -52 67 -32 171 -62 185 -53 4 2 10 0 14 -5
3 -6 12 -8 21 -4 13 5 13 8 -2 24 -9 11 -23 19 -29 19 -15 0 -40 28 -33 36 3
3 41 -14 84 -37 44 -23 102 -54 129 -68 l50 -26 -2 -62 -2 -63 300 0 300 0 -2
92 c-1 72 -5 96 -18 105 -15 11 -14 12 2 13 42 0 10 32 -80 78 l-98 50 0 294
0 293 90 48 c95 51 112 63 103 73 -4 3 -47 -16 -97 -42 l-90 -49 -43 22 c-24
13 -108 56 -187 98 -80 41 -152 75 -160 75 -9 0 -52 -21 -96 -46z m115 12 c0
-2 -9 -6 -20 -9 -11 -3 -18 -1 -14 4 5 9 34 13 34 5z m-90 -46 c-14 -11 -29
-20 -35 -20 -5 0 4 9 20 20 38 25 48 25 15 0z m155 10 c3 -5 1 -10 -4 -10 -6
0 -11 5 -11 10 0 6 2 10 4 10 3 0 8 -4 11 -10z m80 -41 c15 -14 -7 -10 -35 7
l-25 15 25 -7 c14 -3 29 -10 35 -15z m-885 5 c0 -8 -19 -13 -24 -6 -3 5 1 9 9
9 8 0 15 -2 15 -3z m560 -18 c0 -3 -4 -8 -10 -11 -5 -3 -10 -1 -10 4 0 6 5 11
10 11 6 0 10 -2 10 -4z m370 -11 c11 -13 10 -14 -4 -9 -9 3 -16 10 -16 15 0
13 6 11 20 -6z m-410 -15 c-8 -5 -19 -10 -25 -10 -5 0 -3 5 5 10 8 5 20 10 25
10 6 0 3 -5 -5 -10z m-40 -28 c0 -4 -10 -9 -22 -9 -18 -2 -20 0 -8 7 18 12 30
13 30 2z m580 -23 l25 -20 -30 13 c-16 6 -36 17 -44 24 -24 22 20 6 49 -17z
m-637 -4 c-3 -9 -8 -14 -10 -11 -3 3 -2 9 2 15 9 16 15 13 8 -4z m-148 -55 c7
-12 -2 -12 -30 0 -19 8 -19 9 2 9 12 1 25 -3 28 -9z m405 -241 c16 -29 9 -29
-17 -2 -16 16 -18 23 -8 23 8 0 19 -9 25 -21z m-584 -76 c-10 -10 -19 5 -10
18 6 11 8 11 12 0 2 -7 1 -15 -2 -18z m551 11 c-3 -3 -12 -4 -19 -1 -8 3 -5 6
6 6 11 1 17 -2 13 -5z m-552 -34 c-3 -5 -13 -10 -21 -10 -8 0 -12 5 -9 10 3 6
13 10 21 10 8 0 12 -4 9 -10z m265 -58 c0 -4 12 -13 28 -20 17 -7 36 -31 52
-64 27 -56 100 -137 140 -156 37 -17 134 -72 145 -83 17 -17 42 -9 126 37 172
96 229 123 244 118 8 -4 15 -10 15 -15 0 -5 12 -15 28 -21 21 -9 23 -12 10
-15 -10 -3 -18 -9 -18 -14 0 -12 -37 -12 -45 1 -3 5 3 10 14 10 12 0 21 5 21
10 0 6 -5 10 -10 10 -18 0 -70 -30 -70 -40 0 -14 18 -21 25 -10 3 5 10 10 16
10 5 0 4 -9 -3 -20 -13 -20 -58 -28 -58 -10 0 6 -10 10 -21 10 -18 0 -19 -3
-9 -15 12 -14 6 -35 -10 -35 -5 0 -7 7 -4 15 9 21 3 20 -96 -23 -19 -8 -57
-23 -85 -33 -47 -16 -50 -16 -56 -1 -4 9 -69 48 -145 86 -77 38 -162 84 -191
102 -50 33 -86 43 -97 25 -3 -5 -16 -11 -28 -14 -20 -6 -20 -4 5 19 22 20 27
34 27 69 0 25 5 45 10 45 6 0 10 -4 10 -10 0 -5 7 -7 15 -4 8 4 15 11 15 16 0
6 -7 8 -15 5 -15 -7 -29 6 -18 17 9 8 33 8 33 -2z m70 -224 c0 -5 -9 -4 -20 2
-11 6 -20 12 -20 14 0 2 9 2 20 -1 11 -3 20 -9 20 -15z m774 -14 c16 -6 12
-24 -5 -24 -6 0 -8 4 -5 9 4 5 0 12 -6 14 -7 3 -10 6 -6 6 3 1 13 -2 22 -5z
m-25 -31 c10 -21 14 -24 21 -13 5 8 12 11 16 8 3 -4 -1 -14 -9 -23 -16 -16
-32 -21 -23 -7 10 16 -34 42 -59 36 -15 -4 -25 -2 -25 4 0 10 20 19 51 21 9 0
21 -11 28 -26z m76 -1 c-3 -3 -11 0 -18 7 -9 10 -8 11 6 5 10 -3 15 -9 12 -12z
m-105 -22 c0 -5 -5 -10 -11 -10 -5 0 -7 5 -4 10 3 6 8 10 11 10 2 0 4 -4 4
-10z"/>
<path d="M9274 429 c-3 -6 -1 -16 5 -22 8 -8 11 -5 11 11 0 24 -5 28 -16 11z"/>
<path d="M4318 1133 c7 -3 16 -2 19 1 4 3 -2 6 -13 5 -11 0 -14 -3 -6 -6z"/>
<path d="M7364 1130 c-12 -5 -29 -19 -38 -32 -43 -61 5 -148 82 -148 98 0 130
130 42 175 -32 17 -54 18 -86 5z m100 -32 c24 -34 21 -94 -6 -112 -52 -36
-128 -2 -128 57 1 52 26 75 87 76 22 1 37 -6 47 -21z"/>
<path d="M4665 1110 c3 -5 11 -10 16 -10 6 0 7 5 4 10 -3 6 -11 10 -16 10 -6
0 -7 -4 -4 -10z"/>
<path d="M8875 1091 c-6 -11 9 -23 19 -14 9 9 7 23 -3 23 -6 0 -12 -4 -16 -9z"/>
<path d="M1170 966 c0 -2 7 -6 15 -10 8 -3 15 -1 15 4 0 6 -7 10 -15 10 -8 0
-15 -2 -15 -4z"/>
<path d="M7074 955 c3 -9 6 -21 6 -26 0 -5 11 -3 25 3 32 14 27 32 -10 36 -22
3 -27 0 -21 -13z"/>
<path d="M7164 890 c-28 -11 -35 -32 -20 -61 17 -35 62 -38 77 -5 20 43 -14
82 -57 66z"/>
<path d="M1841 824 c-26 -33 -27 -58 -1 -84 43 -43 123 -14 123 45 0 63 -82
89 -122 39z"/>
<path d="M1179 518 c-6 -12 -4 -46 2 -42 9 5 34 -36 31 -52 -3 -14 26 -27 39
-19 8 6 -28 66 -43 73 -5 2 -8 12 -8 23 0 15 -16 27 -21 17z"/>
<path d="M1250 484 c0 -8 5 -12 10 -9 6 4 8 11 5 16 -9 14 -15 11 -15 -7z"/>
<path d="M8591 484 c0 -11 3 -14 6 -6 3 7 2 16 -1 19 -3 4 -6 -2 -5 -13z"/>
<path d="M1280 451 c0 -5 5 -13 10 -16 6 -3 10 -2 10 4 0 5 -4 13 -10 16 -5 3
-10 2 -10 -4z"/>
<path d="M8590 410 c0 -5 5 -10 10 -10 6 0 10 5 10 10 0 6 -4 10 -10 10 -5 0
-10 -4 -10 -10z"/>
<path d="M8652 408 c-9 -9 -5 -17 14 -35 14 -12 33 -23 42 -22 12 0 13 2 3 6
-7 3 -22 14 -33 25 -17 17 -18 22 -7 29 8 5 9 9 4 9 -6 0 -16 -5 -23 -12z"/>
<path d="M8700 400 c0 -5 5 -10 10 -10 6 0 10 5 10 10 0 6 -4 10 -10 10 -5 0
-10 -4 -10 -10z"/>
<path d="M8872 380 c0 -14 2 -19 5 -12 2 6 2 18 0 25 -3 6 -5 1 -5 -13z"/>
<path d="M4898 366 c-10 -7 -15 -16 -11 -19 3 -4 1 -7 -5 -7 -7 0 -12 -5 -12
-11 0 -5 10 -3 22 5 12 9 28 16 35 16 7 0 93 -43 190 -95 98 -52 181 -94 186
-92 14 4 -21 25 -213 125 -150 78 -177 89 -192 78z"/>
<path d="M1288 363 c7 -3 16 -2 19 1 4 3 -2 6 -13 5 -11 0 -14 -3 -6 -6z"/>
<path d="M8743 338 c-2 -16 1 -18 10 -9 7 7 8 14 1 21 -6 6 -10 2 -11 -12z"/>
<path d="M485 305 c-22 -14 -36 -25 -32 -25 11 0 87 39 87 45 0 10 -16 4 -55
-20z"/>
<path d="M8836 304 c-11 -7 -18 -16 -15 -18 2 -2 13 2 23 10 11 7 18 16 15 18
-2 2 -13 -2 -23 -10z"/>
<path d="M6596 295 c10 -8 23 -15 28 -15 6 0 1 7 -10 15 -10 8 -23 15 -28 15
-6 0 -1 -7 10 -15z"/>
<path d="M6531 254 c0 -11 3 -14 6 -6 3 7 2 16 -1 19 -3 4 -6 -2 -5 -13z"/>
<path d="M239 173 c-13 -17 -13 -17 6 -3 11 8 22 16 24 17 2 2 0 3 -6 3 -6 0
-17 -8 -24 -17z"/>
<path d="M7283 50 c0 -30 2 -43 4 -28 2 16 2 40 0 55 -2 16 -4 3 -4 -27z"/>
<path d="M6305 10 c3 -5 10 -10 16 -10 5 0 9 5 9 10 0 6 -7 10 -16 10 -8 0
-12 -4 -9 -10z"/>
</g>
</svg>
